<?xml version="1.0" encoding="UTF-8"?>
<svg width="34px" height="46px" viewBox="0 0 34 46" version="1.1" xmlns="http://www.w3.org/2000/svg" xmlns:xlink="http://www.w3.org/1999/xlink">
    <title>Shape</title>
    <g id="Page-1" stroke="none" stroke-width="1" fill="none" fill-rule="evenodd">
        <g id="MacBook-Pro-14&quot;" transform="translate(-739, -899)" fill="#FFFFFF" fill-rule="nonzero" stroke="#FFFFFF" stroke-width="0.7">
            <path d="M771.34835,925.5375 C771.320225,925.415625 771.245225,925.303125 771.151475,925.21875 C771.132725,925.134375 771.08585,925.05 771.020225,924.975 C770.3921,924.3 769.182725,924.24375 768.3296,924.103125 C767.026475,923.8875 765.8171,923.446875 764.495225,923.3625 C764.7296,921.80625 764.888975,920.23125 765.113975,918.675 C765.31085,917.2875 765.563975,915.909375 765.9296,914.559375 C766.257725,913.359375 766.613975,912.178125 766.88585,910.959375 C767.4296,908.53125 767.907725,906.046875 769.220225,903.890625 C769.32335,903.7125 769.445225,903.553125 769.557725,903.384375 C769.651475,903.2625 769.670225,903.13125 769.66085,903 C769.6796,902.98125 769.688975,902.971875 769.707725,902.953125 C769.726475,902.94375 769.73585,902.925 769.7546,902.915625 C769.92335,902.7375 769.96085,902.5875 769.9796,902.34375 C769.988975,902.11875 769.763975,901.921875 769.5671,901.875 C768.8171,901.715625 768.076475,901.51875 767.33585,901.33125 C766.54835,901.125 765.76085,901.003125 764.963975,900.871875 C763.43585,900.609375 762.001475,900.01875 760.43585,900 C760.276475,900 760.163975,900.05625 760.088975,900.140625 C759.695225,900.20625 759.301475,900.3375 758.9171,900.46875 C758.14835,900.740625 757.388975,901.021875 756.620225,901.284375 C754.726475,901.921875 752.8421,902.596875 750.920225,903.159375 C749.982725,903.43125 749.0546,903.7125 748.126475,904.021875 C747.226475,904.321875 746.307725,904.734375 745.3796,904.921875 C744.23585,905.146875 742.7546,905.240625 741.807725,905.990625 C741.676475,906.09375 741.620225,906.225 741.61085,906.346875 C741.507725,906.4125 741.42335,906.525 741.4046,906.69375 C741.34835,907.171875 741.4421,907.565625 741.6296,907.996875 C741.8546,908.49375 741.83585,909.028125 741.8921,909.5625 C741.995225,910.659375 742.39835,911.7 742.782725,912.721875 C743.607725,914.86875 744.245225,917.08125 744.995225,919.25625 C745.7546,921.459375 746.5421,923.653125 747.095225,925.921875 C747.34835,926.934375 747.4421,927.984375 747.64835,929.00625 C747.713975,929.334375 747.863975,929.896875 748.1546,930.159375 C748.1546,930.16875 748.1546,930.1875 748.1546,930.196875 C746.776475,930.796875 745.576475,931.734375 744.207725,932.34375 C742.88585,932.925 741.3671,933 740.2046,933.928125 C739.932725,934.14375 739.96085,934.471875 740.120225,934.6875 C740.176475,934.865625 740.3171,935.00625 740.532725,935.04375 C740.795225,935.68125 741.61085,936.1125 742.163975,936.384375 C742.520225,936.5625 742.895225,936.7125 743.26085,936.871875 C743.93585,937.153125 744.582725,937.6875 745.17335,938.1 C745.7921,938.53125 746.382725,939.009375 747.020225,939.403125 C747.676475,939.80625 748.36085,940.1625 749.045225,940.51875 C749.71085,940.85625 750.338975,941.2125 750.976475,941.60625 C751.62335,942.01875 752.288975,942.4125 753.01085,942.69375 C753.151475,942.75 753.282725,942.740625 753.395225,942.69375 C754.520225,942.99375 755.6546,943.25625 756.79835,943.48125 C758.0171,943.725 759.1421,944.30625 760.407725,944.240625 C760.763975,944.221875 760.9046,943.9125 760.857725,943.640625 C760.8671,943.584375 760.876475,943.528125 760.876475,943.471875 C760.9421,943.378125 760.970225,943.25625 760.96085,943.14375 C761.0921,942.9 761.307725,942.703125 761.48585,942.50625 C761.7296,942.234375 761.926475,941.94375 762.132725,941.634375 C762.620225,940.875 763.070225,940.096875 763.595225,939.365625 C764.663975,937.884375 765.938975,936.571875 767.007725,935.08125 C768.076475,933.6 769.032725,932.034375 769.9046,930.440625 C770.626475,929.11875 771.526475,927.628125 771.751475,926.109375 C771.788975,925.809375 771.582725,925.603125 771.34835,925.5375 Z M767.926475,925.078125 C768.376475,925.1625 768.83585,925.228125 769.28585,925.3125 C769.47335,925.35 769.670225,925.3875 769.8671,925.4625 C767.6921,926.315625 765.638975,927.440625 763.520225,928.40625 C763.557725,928.14375 763.613975,927.871875 763.66085,927.609375 C763.81085,926.821875 763.988975,926.034375 764.157725,925.246875 C764.22335,924.95625 764.2796,924.665625 764.326475,924.375 C765.563975,924.4125 766.7171,924.84375 767.926475,925.078125 Z M743.78585,906.3 C744.357725,906.15 744.94835,906.05625 745.5296,905.94375 C746.401475,905.765625 747.2546,905.4 748.09835,905.11875 C749.026475,904.809375 749.9546,904.5 750.8921,904.2375 C752.757725,903.7125 754.58585,903.065625 756.413975,902.446875 C757.182725,902.184375 757.9421,901.940625 758.701475,901.65 C759.282725,901.425 759.995225,901.078125 760.632725,901.125 C760.745225,901.134375 760.84835,901.10625 760.932725,901.059375 C762.226475,901.171875 763.47335,901.659375 764.74835,901.89375 C765.488975,902.034375 766.220225,902.128125 766.951475,902.315625 C767.420225,902.428125 767.89835,902.559375 768.3671,902.68125 C767.9171,902.90625 767.3921,903.046875 766.970225,903.2625 C766.070225,903.721875 765.19835,904.190625 764.270225,904.584375 C762.4796,905.353125 760.632725,906 758.8421,906.76875 C757.32335,907.415625 755.82335,908.11875 754.238975,908.56875 C753.432725,908.79375 752.3921,909.009375 751.613975,909.4875 C751.54835,909.440625 751.47335,909.403125 751.370225,909.39375 C749.86085,909.24375 748.54835,908.3625 747.113975,907.921875 C745.6796,907.48125 744.23585,907.096875 742.820225,906.609375 C742.820225,906.6 742.81085,906.6 742.81085,906.6 C743.120225,906.459375 743.457725,906.384375 743.78585,906.3 Z M747.7421,924.39375 C747.188975,922.378125 746.4671,920.409375 745.782725,918.43125 C745.107725,916.471875 744.545225,914.484375 743.795225,912.553125 C743.4296,911.615625 743.045225,910.659375 742.913975,909.65625 C742.84835,909.159375 742.8296,908.6625 742.77335,908.165625 C742.7546,907.96875 742.66085,907.790625 742.576475,907.6125 C743.9546,908.08125 745.351475,908.465625 746.738975,908.878125 C748.09835,909.290625 749.363975,910.0875 750.770225,910.340625 C750.76085,910.36875 750.76085,910.396875 750.76085,910.425 C750.7421,910.528125 750.732725,910.640625 750.7421,910.734375 C750.770225,911.26875 750.8921,911.8125 751.032725,912.328125 C751.3046,913.340625 751.73585,914.325 752.082725,915.309375 C752.4671,916.396875 752.78585,917.49375 753.0296,918.628125 C753.526475,920.896875 753.87335,923.19375 754.201475,925.490625 C754.351475,926.5875 754.520225,927.684375 754.62335,928.78125 C754.688975,929.53125 754.763975,930.290625 754.895225,931.03125 C753.9296,931.03125 752.982725,930.515625 752.0546,930.3 C751.06085,930.075 750.057725,929.859375 749.045225,929.68125 C749.007725,929.53125 748.913975,929.4 748.782725,929.315625 C748.77335,929.2875 748.7546,929.25 748.73585,929.184375 C748.6796,929.034375 748.651475,928.875 748.613975,928.715625 C748.538975,928.3125 748.47335,927.9 748.407725,927.496875 C748.238975,926.45625 748.032725,925.425 747.7421,924.39375 Z M748.66085,929.279913 C748.538975,929.239913 748.39835,929.259913 748.257725,929.349913 C748.43585,929.229913 748.5671,929.239913 748.66085,929.279913 Z M744.53585,933.328125 C746.063975,932.690625 747.34835,931.584375 748.9046,931.0125 C749.045225,930.965625 749.1296,930.871875 749.18585,930.76875 C750.1421,930.946875 751.088975,931.153125 752.03585,931.36875 C752.82335,931.546875 753.563975,931.89375 754.351475,932.025 C754.3046,932.053125 754.24835,932.08125 754.1921,932.1 C753.357725,932.475 752.551475,932.915625 751.707725,933.271875 C750.2546,933.890625 748.88585,934.6875 747.432725,935.315625 C747.3671,935.278125 747.282725,935.259375 747.19835,935.259375 C746.738975,935.240625 746.2796,935.08125 745.838975,934.940625 C745.28585,934.7625 744.7421,934.6125 744.170225,934.5 C743.44835,934.35 742.7171,934.21875 741.98585,934.134375 C742.820225,933.825 743.7296,933.665625 744.53585,933.328125 Z M756.8171,942.45 C755.551475,942.196875 754.295225,941.896875 753.057725,941.55 C753.001475,941.53125 752.945225,941.53125 752.888975,941.53125 C751.88585,941.04375 750.98585,940.359375 749.982725,939.853125 C748.6796,939.196875 747.470225,938.49375 746.288975,937.65 C745.332725,936.965625 744.357725,936.24375 743.2796,935.784375 C742.88585,935.615625 742.4921,935.428125 742.1171,935.2125 C742.09835,935.203125 742.0796,935.19375 742.051475,935.175 C742.81085,935.278125 743.570225,935.428125 744.320225,935.5875 C745.13585,935.75625 745.9046,936.09375 746.7296,936.234375 C746.738975,936.3375 746.795225,936.440625 746.888975,936.534375 C747.788975,937.40625 748.988975,937.865625 750.08585,938.446875 C751.388975,939.13125 752.645225,939.909375 753.957725,940.59375 C755.2796,941.2875 756.61085,941.934375 757.895225,942.7125 C757.932725,942.73125 757.970225,942.759375 758.007725,942.778125 C757.6046,942.646875 757.21085,942.525 756.8171,942.45 Z M770.0171,927.9375 C769.670225,928.6875 769.276475,929.41875 768.882725,930.140625 C767.963975,931.809375 766.951475,933.43125 765.8171,934.959375 C764.7671,936.384375 763.51085,937.659375 762.507725,939.121875 C762.01085,939.834375 761.5796,940.59375 761.11085,941.325 C760.763975,941.859375 760.24835,942.2625 759.976475,942.834375 C759.16085,942.290625 758.33585,941.765625 757.482725,941.278125 C756.3296,940.6125 755.120225,940.05 753.94835,939.421875 C752.8046,938.8125 751.688975,938.128125 750.545225,937.51875 C749.71085,937.06875 748.820225,936.721875 748.06085,936.159375 C749.29835,935.596875 750.4796,934.93125 751.7171,934.378125 C752.495225,934.03125 753.27335,933.69375 754.032725,933.309375 C754.351475,933.15 754.6796,933.009375 754.9796,932.821875 C755.26085,932.653125 755.551475,932.3625 755.89835,932.334375 C756.23585,932.30625 756.38585,932.025 756.357725,931.7625 C756.413975,931.490625 756.226475,931.190625 755.963975,931.125 C755.795225,930.328125 755.7296,929.5125 755.6546,928.70625 C755.570225,927.721875 755.420225,926.746875 755.288975,925.771875 C755.007725,923.728125 754.69835,921.69375 754.3046,919.66875 C754.107725,918.665625 753.91085,917.653125 753.6296,916.678125 C753.34835,915.69375 752.9921,914.7375 752.645225,913.78125 C752.3921,913.0875 752.101475,912.384375 751.9421,911.6625 C751.895225,911.4375 751.857725,911.2125 751.820225,910.9875 C751.801475,910.884375 751.7921,910.78125 751.782725,910.678125 C751.801475,910.659375 751.81085,910.63125 751.820225,910.6125 C752.1296,910.321875 752.570225,910.1625 752.963975,910.021875 C753.601475,909.7875 754.2671,909.628125 754.913975,909.43125 C756.5546,908.953125 758.11085,908.175 759.68585,907.51875 C761.48585,906.76875 763.32335,906.103125 765.113975,905.334375 C766.0046,904.95 766.84835,904.4625 767.71085,904.021875 C767.832725,903.965625 767.945225,903.909375 768.0671,903.853125 C767.0921,905.625 766.58585,907.6125 766.13585,909.590625 C765.863975,910.790625 765.61085,912 765.27335,913.18125 C764.89835,914.49375 764.5421,915.7875 764.307725,917.1375 C763.88585,919.575 763.745225,922.06875 763.257725,924.4875 C762.976475,925.89375 762.563975,927.3 762.4421,928.734375 C762.413975,929.025 762.4046,929.334375 762.601475,929.540625 C762.68585,929.6625 762.8171,929.7375 762.976475,929.7375 C763.088975,929.746875 763.1921,929.709375 763.2671,929.64375 C765.751475,928.565625 768.113975,927.20625 770.663975,926.259375 C770.52335,926.840625 770.270225,927.39375 770.0171,927.9375 Z" id="Shape"></path>
        </g>
    </g>
</svg>