<?xml version="1.0" encoding="UTF-8"?>
<svg width="160px" height="93px" viewBox="0 0 160 93" version="1.1" xmlns="http://www.w3.org/2000/svg" xmlns:xlink="http://www.w3.org/1999/xlink">
    <title>Group</title>
    <g id="Page-1" stroke="none" stroke-width="1" fill="none" fill-rule="evenodd">
        <g id="MacBook-Pro-14&quot;" transform="translate(-242, -1573)" fill-rule="nonzero">
            <g id="Group" transform="translate(244, 1575)">
                <g id="RSVP" transform="translate(17, 25)" fill="#FFFFFF">
                    <path d="M26.0685,36.126 L25.9065,35.748 C25.7445,35.262 25.5285,34.776 25.3665,34.29 L25.2585,34.128 C25.0425,33.642 24.8805,33.102 24.7185,32.562 L24.5565,31.968 C24.4485,31.698 24.3405,31.428 24.2865,31.158 C24.1245,30.78 24.0165,30.456 23.9085,30.078 C23.7465,29.376 23.4765,28.62 23.2605,27.864 C22.9905,27.216 22.8285,26.514 22.6665,25.812 L22.5045,24.948 C22.4505,24.57 22.3965,24.138 22.2885,23.706 C22.2885,23.652 22.2345,23.598 22.1805,23.544 C22.3425,23.436 22.4505,23.274 22.6125,23.112 L22.8825,22.842 C23.4765,22.302 23.9085,21.816 24.3405,21.168 C24.9885,20.034 25.4745,18.846 25.9065,17.28 C26.0685,16.794 26.1225,16.308 26.1225,15.768 C26.1765,15.552 26.1765,15.39 26.1765,15.174 C26.2845,14.472 26.3385,13.77 26.3385,12.96 L26.3385,12.42 C26.3385,11.88 26.3925,11.34 26.2305,10.746 C26.0685,9.99 25.9065,9.396 25.6905,8.91 L25.5285,8.478 C25.0965,7.398 24.6645,6.156 23.8005,5.238 C22.8285,4.266 21.9105,3.294 20.7225,2.538 L20.5065,2.43 C19.9665,2.052 19.3725,1.728 18.7245,1.512 C18.0765,1.296 17.3205,1.134 16.6185,1.08 C14.8365,0.918 13.0545,0.864 11.5965,0.864 L8.8965,0.864 C8.0325,0.81 7.2225,0.81 6.3585,0.81 C5.9265,0.81 5.5485,0.81 5.1165,0.864 C4.6845,0.864 4.3065,0.864 3.8745,0.864 L2.9025,0.864 C2.7405,0.864 2.5785,0.864 2.4165,0.864 L1.8225,0.972 C1.6065,0.972 1.3905,1.026 1.2285,1.026 C1.0665,1.026 0.9045,1.08 0.7425,1.188 C0.4725,1.296 0.2565,1.566 0.2565,1.89 C0.2025,2.214 0.2025,2.484 0.2025,2.754 C0.1485,3.294 0.0945,3.834 0.0945,4.374 L0.0945,7.506 C0.0945,8.478 0.0945,9.396 0.1485,10.368 L0.1485,13.23 L0.1485,20.142 L0.1485,22.68 C0.1485,23.22 0.1485,23.76 0.2025,24.3 C0.2565,24.786 0.2565,25.218 0.2565,25.704 L0.2565,26.946 C0.2565,28.566 0.2565,30.24 0.0945,31.86 C0.0405,32.886 0.0405,33.966 0.0405,35.046 L0.0405,35.154 C-0.0135,35.586 -0.0135,36.072 0.0405,36.558 L0.0405,36.72 C0.0945,37.044 0.0945,37.368 0.3105,37.638 C0.6885,38.124 1.5525,38.124 2.2005,38.124 C2.3085,38.124 2.3625,38.124 2.4705,38.178 C3.3885,38.178 4.3605,38.232 5.2785,38.232 L5.4945,38.232 L6.8985,38.232 C7.2765,38.286 7.6545,38.286 8.0325,38.286 L8.3025,38.286 L8.5725,38.286 C8.8425,38.286 9.5985,38.286 9.7065,37.368 C9.8145,36.882 9.7605,36.396 9.7605,35.91 C9.7065,35.478 9.7065,35.1 9.7605,34.722 C9.8685,33.75 9.9225,32.724 9.9765,31.752 L10.0305,31.536 L10.0305,30.78 C10.0305,30.51 9.9765,30.294 10.0305,30.024 C10.0305,29.862 10.0305,29.7 10.0845,29.538 C10.1385,29.16 10.1385,28.782 10.1385,28.458 C10.1385,28.134 10.1925,27.81 10.1925,27.486 C10.1925,27.27 10.2465,27.108 10.2465,26.892 L10.2465,26.568 C10.2465,26.514 10.3005,26.46 10.4085,26.352 C10.4625,26.352 10.5165,26.298 10.5705,26.298 L10.8405,26.298 C10.8945,26.298 10.9485,26.244 10.8945,26.244 L11.0565,26.244 C11.2725,26.244 11.4885,26.244 11.7045,26.298 C11.9205,26.298 12.1365,26.352 12.3525,26.352 C12.5145,26.406 12.6225,26.406 12.8925,26.46 C12.8925,26.568 12.8925,26.622 12.9465,26.676 L13.1085,27.162 C13.2165,27.27 13.2705,27.378 13.3245,27.54 C13.3785,27.756 13.4325,28.026 13.5405,28.296 L13.7025,29.106 L14.1885,30.78 C14.4585,31.428 14.6205,32.076 14.7825,32.724 C14.9445,33.318 15.1065,33.912 15.3225,34.452 L15.6465,35.37 C15.7545,35.64 15.8625,35.856 15.9165,36.126 C15.9705,36.288 16.0785,36.396 16.1325,36.558 L16.2945,36.936 C16.3485,37.044 16.3485,37.152 16.4025,37.26 C16.4565,37.476 16.5105,37.692 16.6725,37.962 C16.9965,38.448 17.4825,38.502 17.9145,38.556 C18.2925,38.61 18.6705,38.61 19.1025,38.61 C19.3725,38.61 19.6425,38.61 19.9125,38.61 L20.6685,38.61 C21.3165,38.61 21.9645,38.502 22.6125,38.448 C23.2065,38.34 23.8545,38.286 24.4485,38.286 L24.8805,38.286 L25.0965,38.34 L25.4745,38.34 C26.0685,38.34 26.2845,38.016 26.3925,37.692 C26.5005,37.206 26.2845,36.612 26.0685,36.126 Z M17.2125,13.716 C17.2125,13.986 17.1045,14.256 16.9965,14.526 L16.8885,14.85 C16.7805,15.12 16.6725,15.498 16.4565,15.714 C16.2405,15.876 15.9165,15.984 15.5925,16.038 L15.2685,16.092 C14.9445,16.2 14.6205,16.254 14.2965,16.308 L12.8385,16.308 C12.4065,16.308 12.0285,16.308 11.5965,16.308 L11.3805,16.254 L11.3805,16.578 L11.3265,16.254 C11.2725,16.2 11.2185,16.2 11.1645,16.2 L10.7325,16.038 L10.6785,15.984 L10.5705,15.93 L10.2465,15.714 C10.1925,15.66 10.1385,15.606 10.0845,15.606 L9.9225,15.768 L9.8685,15.768 L10.0845,15.498 L9.9225,15.282 C9.8685,14.688 9.9225,14.094 9.9225,13.554 L9.9225,12.852 C9.9765,12.528 9.9765,12.258 9.9765,11.934 L10.0305,11.394 C10.0305,11.232 10.0305,11.07 10.0845,10.908 L10.0845,10.638 C10.0845,10.584 10.1385,10.53 10.1925,10.476 L10.2465,10.368 L10.4085,10.26 L11.0565,10.26 C11.4885,10.26 11.9205,10.26 12.3525,10.314 C13.2705,10.314 14.1345,10.368 14.9445,10.476 C15.8625,10.638 16.4565,10.962 16.8345,11.448 C17.3745,12.15 17.2665,13.338 17.2125,13.716 Z" id="Shape"></path>
                    <path d="M60.8445,24.84 C60.7365,23.49 60.3585,22.302 59.9805,21.114 L59.8185,20.574 C59.5485,19.818 59.1165,19.17 58.6845,18.63 C58.0905,17.928 57.5505,17.226 56.7945,16.74 C56.2545,16.362 55.6065,16.092 55.0125,15.768 L54.8505,15.714 C54.2025,15.39 53.5545,15.066 52.7985,14.796 C51.2325,14.202 49.8285,13.716 48.5325,13.284 C47.9925,13.122 47.3985,12.96 46.8585,12.852 C45.8325,12.636 44.9145,12.42 43.9965,11.988 C43.3485,11.664 42.9165,10.962 42.8625,10.152 C42.8085,9.342 43.1325,8.64 43.7265,8.262 C44.3205,7.884 44.9685,7.668 45.8325,7.668 L46.1025,7.668 C46.8045,7.722 47.7225,7.938 48.2625,8.424 L48.3705,8.532 C48.7485,8.856 48.9645,9.126 49.2345,9.558 C49.4505,9.936 49.5045,10.314 49.5585,10.746 L49.6125,11.016 C49.6665,11.394 49.7745,11.934 50.2065,12.15 C50.3685,12.258 50.6385,12.312 50.9085,12.312 C51.1245,12.312 51.2865,12.312 51.5025,12.258 L51.9885,12.258 L53.1765,12.258 C53.9865,12.258 54.7965,12.258 55.5525,12.15 L56.4165,12.15 C56.6865,12.15 57.0105,12.096 57.2805,12.096 L57.8205,12.042 C58.1985,12.042 58.6305,12.042 59.0085,11.934 C60.1965,11.61 59.9265,9.828 59.8185,8.91 L59.7645,8.748 C59.6025,7.614 59.0625,6.48 58.5225,5.508 C57.4965,3.51 55.6605,1.836 53.5545,1.026 C52.3665,0.594 51.0705,0.324 49.8285,0.216 C49.3425,0.216 48.9105,0.162 48.4245,0.108 C47.6685,0.054 46.8585,0 45.9945,0 C44.6985,0 43.5645,0.108 42.2685,0.378 L42.0525,0.432 C40.9185,0.702 39.8925,0.918 38.8125,1.458 C37.8405,1.944 36.6525,2.538 35.7885,3.51 C34.9245,4.482 34.3845,5.292 34.0065,6.102 L33.3045,7.776 C33.0885,8.37 32.9805,8.964 32.8725,9.72 C32.7105,11.178 32.8185,12.42 33.1965,13.662 C33.6285,15.174 34.2765,16.524 35.0325,17.604 C35.3565,18.09 35.8965,18.738 36.4905,19.224 L36.9765,19.71 C37.3005,19.98 37.5705,20.25 37.8945,20.466 C39.0285,21.168 40.2705,21.708 41.5125,22.194 C42.2145,22.518 42.8085,22.68 43.3485,22.842 L44.2125,23.058 C44.5365,23.166 44.8065,23.274 45.1305,23.328 L45.1845,23.382 C45.3465,23.436 45.5085,23.436 45.6705,23.49 C45.7785,23.49 45.8865,23.544 45.9945,23.544 C46.1565,23.598 46.2645,23.652 46.4265,23.706 L46.9665,23.868 C47.6685,24.03 48.2085,24.246 48.7485,24.57 C49.6665,25.164 50.2605,26.19 50.3145,27.27 C50.3685,27.864 50.0985,28.674 49.6665,29.052 C49.2885,29.376 48.7485,29.7 47.9925,29.916 C47.7225,30.078 47.3985,30.132 46.9665,30.132 C46.5345,30.132 46.1025,30.024 45.6165,29.97 C44.8605,29.862 44.2665,29.754 43.7265,29.376 C43.1325,28.89 42.7005,28.134 42.3765,27.432 C42.0525,26.838 42.0525,26.19 42.0525,25.434 L42.0525,25.272 C42.0525,25.002 41.9445,24.732 41.7285,24.57 C41.5665,24.408 41.3505,24.354 41.1345,24.354 C39.6765,24.354 38.2185,24.408 36.8685,24.462 L35.7345,24.462 C34.7085,24.462 33.6285,24.462 32.4945,24.786 C32.1705,24.84 31.9545,25.056 31.7925,25.326 C31.3605,26.028 31.6845,27.162 31.9005,28.026 L32.0625,28.458 C32.3325,29.754 32.6565,31.212 33.3585,32.4 C34.4385,34.29 36.1665,36.828 38.8665,37.854 C39.3525,38.016 39.8925,38.124 40.4325,38.232 L40.9185,38.34 C41.6745,38.502 42.4845,38.664 43.2945,38.772 C44.2665,38.88 45.2385,38.934 46.1565,38.988 C46.5345,38.988 46.9125,38.988 47.2905,39.042 L47.9925,39.042 C48.5325,39.042 49.0185,38.988 49.4505,38.934 C50.3145,38.826 51.1785,38.718 51.9345,38.394 L52.4205,38.232 C53.6625,37.746 54.8505,37.314 55.9305,36.504 C55.9845,36.45 56.0385,36.396 56.0385,36.396 C56.5245,36.072 56.9565,35.694 57.3345,35.262 L57.4425,35.154 C58.0365,34.614 58.5765,33.858 59.0085,33.102 C59.5485,32.076 60.0345,30.888 60.4125,29.592 C60.6285,28.89 60.8445,28.134 60.8985,27.324 C60.9525,26.514 60.8985,25.65 60.8445,24.84 Z" id="Shape"></path>
                    <path d="M92.1105,1.188 C91.9485,1.026 91.7325,0.918 91.5165,0.918 L89.1945,0.918 C88.7625,0.918 88.3305,0.918 87.8985,0.972 L87.3585,0.972 L85.9545,0.918 C85.6305,0.918 85.3065,0.972 84.9825,0.972 L84.0645,0.972 C83.6865,0.972 83.3625,1.242 83.3085,1.62 C82.9845,2.052 82.8225,2.646 82.7145,3.186 L82.6605,3.51 C82.4985,4.05 82.4445,4.536 82.3905,5.076 L82.2285,6.102 C82.0125,7.182 81.6885,8.208 81.3105,9.234 L80.8245,10.638 C80.3385,12.204 79.9605,13.716 79.5285,15.552 C79.0425,17.388 78.6105,19.332 78.3405,21.33 C78.2325,21.978 78.0705,22.626 77.8545,23.274 L77.5305,24.462 L77.4225,24.948 L77.3685,25.326 L77.3145,25.326 C77.2605,25.056 77.1525,24.786 77.0445,24.516 L76.9365,24.192 C76.8285,23.922 76.7745,23.598 76.7205,23.22 C76.7205,23.112 76.6665,22.95 76.6665,22.788 C76.4505,21.762 76.2345,20.736 75.9645,19.71 L75.4785,17.604 C75.2085,16.254 74.8305,14.85 74.4525,13.5 L74.1285,12.096 L73.8045,11.016 C73.6425,10.584 73.5345,10.098 73.4265,9.612 C73.2645,8.856 73.1025,8.1 72.8865,7.398 L72.8325,7.074 C72.6165,6.264 72.5085,5.346 72.3465,4.32 C72.2925,3.78 72.1305,3.24 72.0225,2.7 L71.6985,1.458 C71.6445,1.08 71.3745,0.864 70.9965,0.864 L70.8885,0.81 L68.7825,0.81 C68.6205,0.81 68.4045,0.81 68.2425,0.81 L67.6485,0.81 C67.3245,0.81 67.0545,0.81 66.7845,0.864 C66.2985,0.918 65.7585,0.918 65.3805,0.918 L64.9485,0.918 C64.6785,0.918 64.3545,0.918 64.0845,0.972 L63.2745,0.972 C63.1125,0.972 63.0045,1.026 62.8425,1.134 C62.6265,1.188 62.4645,1.296 62.4105,1.512 C62.3025,1.674 62.2485,1.89 62.3025,2.106 C62.5725,3.024 62.7345,3.888 62.8425,4.806 L63.0045,5.778 C63.0585,6.264 63.1125,6.696 63.2745,7.182 L63.3285,7.398 C63.4365,7.938 63.5985,8.424 63.6525,8.964 C63.9225,10.854 64.4625,12.69 65.0025,14.526 C65.1645,15.012 65.3265,15.498 65.4345,15.93 C65.5425,16.254 65.5965,16.578 65.6505,16.848 C65.7585,17.118 65.8125,17.334 65.8665,17.604 L65.9205,17.874 C66.0825,18.36 66.1905,18.846 66.2985,19.332 C66.4605,19.98 66.6225,20.628 66.7305,21.276 L67.1085,22.842 C67.2165,23.274 67.3245,23.706 67.3245,24.192 C67.3785,24.786 67.4865,25.38 67.5945,25.974 L67.6485,26.136 L67.8645,27.324 L67.9725,27.864 C68.0805,28.188 68.1885,28.512 68.2425,28.836 C68.3505,29.106 68.4045,29.376 68.4585,29.592 L68.7825,30.78 C68.9985,31.752 69.2145,32.724 69.4845,33.642 C69.6465,34.344 69.8625,35.046 70.0785,35.694 L70.0785,35.802 C70.1865,36.072 70.2945,36.342 70.3485,36.612 C70.3485,36.72 70.4025,36.882 70.4565,36.99 C70.5105,37.206 70.5645,37.368 70.5645,37.53 C70.5645,37.908 70.8345,38.232 71.2125,38.286 C71.3205,38.394 71.4825,38.394 71.5905,38.394 L71.6985,38.394 C72.7785,38.394 73.8585,38.448 74.9385,38.502 C75.9645,38.556 77.0985,38.61 78.1245,38.61 C79.4745,38.61 80.5545,38.556 81.6345,38.394 C81.6885,38.34 81.7965,38.34 81.9045,38.34 C82.0125,38.34 82.1205,38.394 82.2285,38.394 L82.6065,38.394 C82.9305,38.394 83.2545,38.34 83.5785,38.178 C84.1725,37.8 84.3345,36.882 84.4425,36.288 L84.4965,36.18 C84.7665,34.83 85.1445,33.48 85.4685,32.184 L85.7385,30.996 C86.5485,27.864 87.3045,24.678 88.1145,21.492 C88.8165,18.414 89.5725,15.336 90.3825,12.258 C90.6525,11.124 90.8685,9.99 91.0845,8.91 L91.4085,7.182 L91.5705,6.426 C91.7325,5.778 91.8405,5.13 91.9485,4.482 C92.0025,4.212 92.0025,3.942 92.0565,3.672 C92.1105,3.132 92.1645,2.646 92.3265,2.214 C92.3805,2.052 92.3805,1.89 92.3265,1.728 C92.3265,1.512 92.2185,1.296 92.1105,1.188 Z" id="Shape"></path>
                    <path d="M104.0445,0.81 C104.9625,0.864 105.8265,0.918 106.6905,0.918 L108.9585,0.918 C109.4445,0.972 109.8765,0.972 110.3085,0.972 L110.9025,0.972 C114.5745,0.972 117.9765,2.43 120.3525,5.022 C121.0545,5.832 121.5405,6.534 121.7565,7.29 C122.0805,8.154 122.2965,9.018 122.5125,9.882 L122.5665,10.206 C122.9985,11.88 122.9985,13.716 122.6745,15.93 L122.6205,16.308 C122.4585,17.118 122.3505,17.982 122.0265,18.792 C121.7025,19.602 121.2705,20.358 120.8925,21.006 C120.4065,21.816 119.6505,22.572 119.0025,23.166 C118.4625,23.598 117.7605,24.03 117.0585,24.3 C116.2485,24.678 115.2765,24.948 114.2505,25.164 C113.9265,25.218 113.6565,25.326 113.3325,25.38 C112.7385,25.542 112.1445,25.704 111.4965,25.758 C110.5785,25.812 109.7145,25.866 108.8505,25.866 L107.6625,25.866 C107.6085,25.92 107.4465,25.92 107.4465,25.92 L107.3925,25.92 L107.2305,25.704 L107.2845,25.974 L107.1225,25.974 L106.9065,26.136 L106.7445,26.298 L106.6905,26.352 L106.6905,28.836 C106.6905,29.484 106.6365,30.132 106.5825,30.78 C106.5285,31.158 106.4745,31.482 106.4745,31.86 C106.4745,32.022 106.4745,32.13 106.4205,32.292 C106.4205,32.562 106.3665,32.778 106.3665,33.048 C106.4205,33.264 106.4205,33.48 106.4205,33.75 C106.4745,33.966 106.4745,34.182 106.4745,34.452 C106.5285,35.154 106.4205,35.91 106.3125,36.666 L106.2585,37.152 C106.2045,38.016 105.9345,38.556 104.8545,38.556 C104.5305,38.556 104.2605,38.556 103.9905,38.61 L102.954132,38.609136 C102.65346,38.60568 102.3597,38.5884 102.1005,38.502 C101.5065,38.448 100.8585,38.394 100.3185,38.394 L98.7525,38.448 C97.9965,38.448 97.2405,38.34 96.8625,37.746 C96.4845,37.152 96.5925,36.504 96.6465,35.91 C96.7005,35.586 96.7005,35.262 96.7005,35.046 C96.5925,34.236 96.6465,33.48 96.6465,32.724 L96.6465,21.546 C96.5925,20.844 96.5925,20.088 96.6465,19.386 C96.7545,18.738 96.7005,18.036 96.7005,17.334 L96.7005,16.254 C96.7005,15.39 96.7005,14.472 96.6465,13.554 C96.5925,12.906 96.5925,12.204 96.6465,11.556 L96.6465,10.368 C96.6465,9.99 96.6465,9.666 96.7005,9.342 L96.7005,7.722 C96.8625,7.074 96.8085,6.372 96.8085,5.724 C96.8085,5.4 96.7545,5.13 96.7545,4.914 C96.7545,3.726 96.8085,2.754 96.8625,1.836 C96.8625,1.35 97.2945,1.08 97.7265,1.08 C97.6725,1.08 97.7265,1.026 97.8345,1.026 C98.1585,1.08 98.4825,1.08 98.7525,1.08 C99.4005,1.08 100.0485,1.026 100.6425,0.972 C100.9665,0.972 101.2365,0.972 101.5605,0.918 C102.1545,0.864 102.8565,0.81 103.5045,0.81 Z M106.8525,10.314 C106.7985,10.314 106.7985,10.368 106.7445,10.368 L106.5285,10.584 L106.4745,10.692 L106.3665,10.854 C106.4205,10.908 106.4205,11.016 106.3665,11.124 L106.3665,11.502 C106.3665,11.826 106.3125,12.15 106.3125,12.474 C106.3125,13.014 106.3125,13.5 106.2585,14.04 L106.2585,15.714 L105.9345,15.822 L106.2585,15.822 L106.3125,15.93 C106.4205,15.984 106.4745,16.038 106.5285,16.038 L106.8525,16.2 C107.0145,16.254 107.0685,16.254 107.1225,16.254 C107.1765,16.308 107.2845,16.308 107.2845,16.308 L107.3925,16.308 C107.5005,16.308 107.6085,16.362 107.7165,16.362 C108.0945,16.362 108.5265,16.308 108.9045,16.308 C109.2285,16.308 109.5525,16.254 109.8765,16.254 L111.58868,16.2536836 C111.938625,16.2514687 112.34025,16.23375 112.5765,16.092 C113.1705,15.714 113.3325,14.418 113.3865,13.986 C113.4945,12.744 113.0625,10.746 111.3885,10.53 C109.8765,10.314 108.3645,10.314 106.8525,10.314 Z" id="Shape"></path>
                </g>
                <path d="M129.197489,88.5264505 C125.805721,88.5264505 122.742954,88.4755739 121.409989,88.3941715 C104.86155,87.3495068 92.5426473,87.56658 78.2768691,87.8107873 C71.8562514,87.9193239 65.123591,88.034644 57.5429884,88.0414276 C53.930755,88.0448193 50.3049545,88.1024794 46.6757622,88.1567477 C36.5513333,88.3229443 26.080944,88.4857492 15.8649374,87.4207339 C10.8247694,86.9017934 4.68566846,85.6671896 1.95529483,80.7626924 C0.479875545,78.1103295 0.449349629,75.040779 0.422215481,72.5783551 C0.374730723,68.1690561 0.317070659,63.7326229 0.256018826,59.2690556 C-0.0187144207,38.8506093 -0.307014741,37.7402423 0.744433487,17.4167656 C0.880104226,14.8627639 1.05986796,11.3658506 3.01691837,8.63547702 C6.53079051,3.74454687 13.6704632,3.78185632 17.5167286,3.78185632 L28.5433679,3.82934108 C48.8668446,3.92091883 74.162654,4.04641427 92.9903608,3.04584256 C97.1859784,2.82198585 102.246497,2.26234405 107.608883,1.66878456 C114.874051,0.868327202 122.383426,0.0407356932 128.244402,0.00681800843 C134.631102,-0.0270996763 142.574624,-0.0779762035 149.002025,3.72419626 C151.508542,5.20979085 153.32653,7.03117053 154.401721,9.13406698 C156.039945,12.3528553 155.833047,16.1245018 155.677026,18.8752261 C154.971538,31.6079249 154.900311,36.124694 155.47352,49.749428 L155.517613,50.8144433 C155.975501,61.5867 156.406256,61.7653972 155.253055,72.8632636 C154.890135,76.3500016 154.167689,80.3251543 151.559419,83.3811377 C149.341202,85.9792323 145.847681,87.6819001 141.72329,88.1770983 C139.640744,88.4246974 134.078244,88.5264505 129.197489,88.5264505 Z" id="Path" stroke="#FFFFFF" stroke-width="3"></path>
                <path d="M129.197489,88.5264505 C125.805721,88.5264505 122.742954,88.4755739 121.409989,88.3941715 C104.86155,87.3495068 92.5426473,87.56658 78.2768691,87.8107873 C71.8562514,87.9193239 65.123591,88.034644 57.5429884,88.0414276 C53.930755,88.0448193 50.3049545,88.1024794 46.6757622,88.1567477 C36.5513333,88.3229443 26.080944,88.4857492 15.8649374,87.4207339 C10.8247694,86.9017934 4.68566846,85.6671896 1.95529483,80.7626924 C0.479875545,78.1103295 0.449349629,75.040779 0.422215481,72.5783551 C0.374730723,68.1690561 0.317070659,63.7326229 0.256018826,59.2690556 C-0.0187144207,38.8506093 -0.307014741,37.7402423 0.744433487,17.4167656 C0.880104226,14.8627639 1.05986796,11.3658506 3.01691837,8.63547702 C6.53079051,3.74454687 13.6704632,3.78185632 17.5167286,3.78185632 L28.5433679,3.82934108 C48.8668446,3.92091883 74.162654,4.04641427 92.9903608,3.04584256 C97.1859784,2.82198585 102.246497,2.26234405 107.608883,1.66878456 C114.874051,0.868327202 122.383426,0.0407356932 128.244402,0.00681800843 C134.631102,-0.0270996763 142.574624,-0.0779762035 149.002025,3.72419626 C151.508542,5.20979085 153.32653,7.03117053 154.401721,9.13406698 C156.039945,12.3528553 155.833047,16.1245018 155.677026,18.8752261 C154.971538,31.6079249 154.900311,36.124694 155.47352,49.749428 L155.517613,50.8144433 C155.975501,61.5867 156.406256,61.7653972 155.253055,72.8632636 C154.890135,76.3500016 154.167689,80.3251543 151.559419,83.3811377 C149.341202,85.9792323 145.847681,87.6819001 141.72329,88.1770983 C139.640744,88.4246974 134.078244,88.5264505 129.197489,88.5264505 Z" id="Path" stroke="#FFFFFF" stroke-width="3"></path>
            </g>
        </g>
    </g>
</svg>