<!--?xml version="1.0" standalone="no"?-->
              <svg id="sw-js-blob-svg" viewBox="0 0 100 100" xmlns="http://www.w3.org/2000/svg" version="1.1">
                    <defs> 
                        <linearGradient id="sw-gradient" x1="0" x2="1" y1="1" y2="0">
                            <stop id="stop1" stop-color="rgba(255, 255, 255, 1)" offset="0%"></stop>
                            <stop id="stop2" stop-color="rgba(255, 255, 255, 1)" offset="100%"></stop>
                        </linearGradient>
                    </defs>
                <path fill="url(#sw-gradient)" d="M17.6,-20C25.8,-14.2,37.3,-11.4,41.4,-4.8C45.6,1.8,42.3,12.1,36.6,20.3C30.9,28.5,22.8,34.5,15,34.4C7.2,34.2,-0.3,27.9,-9.2,24.9C-18.1,21.8,-28.3,22,-33,17.3C-37.8,12.7,-37.1,3.1,-35.7,-6.5C-34.2,-16.2,-32.1,-25.9,-26,-32.2C-19.9,-38.4,-10,-41.2,-2.6,-38C4.7,-34.9,9.5,-25.9,17.6,-20Z" width="100%" height="100%" transform="translate(50 50)" stroke-width="0" style="transition: all 0.3s ease 0s;" stroke="url(#sw-gradient)"></path>
              </svg>
