<?xml version="1.0" encoding="UTF-8"?>
<svg width="48px" height="48px" viewBox="0 0 48 48" version="1.1" xmlns="http://www.w3.org/2000/svg" xmlns:xlink="http://www.w3.org/1999/xlink">
    <title>Group 3</title>
    <g id="Page-1" stroke="none" stroke-width="1" fill="none" fill-rule="evenodd">
        <g id="MacBook-Pro-14&quot;" transform="translate(-732.5, -715.5)">
            <g id="Group-3" transform="translate(733, 716)">
                <circle id="Oval" stroke-opacity="0.0978944152" stroke="#000000" fill="#FFFFFF" cx="23.5" cy="23.5" r="23.5"></circle>
                <path d="M23.5,12 C22.7951285,12 22.2230588,12.5720697 22.2230588,13.2769414 L22.2230588,29.9669635 L17.2898752,25.0337802 C16.790591,24.5344961 15.9822074,24.5344961 15.4842002,25.0337802 L15.3744632,25.143518 C14.8751789,25.642802 14.8751789,26.4511851 15.3744632,26.9491922 L22.597163,34.1718919 C23.0964471,34.6711759 23.9048302,34.6711759 24.4028373,34.1718919 L31.6255369,26.9491922 C32.124821,26.4499081 32.124821,25.6415251 31.6255369,25.143518 L31.5158004,25.0337802 C31.0165164,24.5344961 30.208132,24.5344961 29.7101249,25.0337802 L24.7769415,29.9669635 L24.7769415,13.2769414 C24.7769415,12.5720697 24.2048718,12 23.5,12 Z" id="Path" fill="#000000" fill-rule="nonzero"></path>
            </g>
        </g>
    </g>
</svg>