<?xml version="1.0" encoding="UTF-8"?>
<svg width="135px" height="147px" viewBox="0 0 135 147" version="1.1" xmlns="http://www.w3.org/2000/svg" xmlns:xlink="http://www.w3.org/1999/xlink">
    <title>heart-6</title>
    <g id="Page-1" stroke="none" stroke-width="1" fill="none" fill-rule="evenodd" stroke-linejoin="round">
        <g id="Image" transform="translate(-3621, -2798)" fill="#FFFFFF" fill-rule="nonzero" stroke="#FFFFFF" stroke-width="2">
            <g id="Group-2" transform="translate(3423, 2094.024)">
                <path d="M278.561171,721.025831 C291.672505,716.445009 303.846498,724.667585 308.258856,736.886927 C312.465457,748.533666 311.91677,762.482269 310.853689,774.621447 C309.127611,794.296076 304.658098,813.764569 298.713988,832.557391 C296.942186,838.157445 288.11747,835.752514 289.900703,830.118103 C289.961154,829.926865 290.021544,829.735459 290.081868,829.543885 C277.743587,825.348256 265.881289,819.833317 254.863698,812.89912 C243.892957,806.000147 231.757081,797.671039 224.408646,786.847775 C218.052307,777.50041 216.875635,764.125784 227.938663,757.673013 C237.545259,752.056377 247.879742,755.389725 256.904923,760.30106 C258.124336,744.962197 263.056266,726.455906 278.561171,721.025831 Z M286.791476,729.030817 C269.622144,727.885612 266.135695,753.354981 265.769904,765.66594 C265.727617,767.029571 265.206245,768.077918 264.431706,768.810838 C263.6261,771.384867 260.810233,773.353108 257.863059,771.505282 C250.9876,767.191994 236.186906,758.107774 229.784424,768.244574 C224.443254,776.688093 236.106154,787.099478 241.701116,791.893292 C256.645539,804.705059 274.092151,814.430465 292.746229,820.790799 C299.476504,797.824506 304.515086,772.970572 301.720336,749.312406 C300.668686,740.356899 297.342271,729.740845 286.791476,729.030817 Z" id="heart-6" transform="translate(265.6113, 777.7409) rotate(24) translate(-265.6113, -777.7409)"></path>
            </g>
        </g>
    </g>
</svg>