<?xml version="1.0" encoding="UTF-8"?>
<svg width="432px" height="1153px" viewBox="0 0 432 1153" version="1.1" xmlns="http://www.w3.org/2000/svg" xmlns:xlink="http://www.w3.org/1999/xlink">
    <title>Group 2</title>
    <g id="Page-1" stroke="none" stroke-width="1" fill="none" fill-rule="evenodd">
        <g id="Image" transform="translate(-3421, -2094)" fill="#FFFFFF" fill-rule="nonzero">
            <g id="Group-2" transform="translate(3423, 2094.024)">
                <path d="M143.135432,1021.90233 C155.092778,1020.9768 166.658822,1028.0805 172.485765,1038.33046 C175.533664,1043.68949 176.856639,1049.78787 176.342888,1055.9288 C175.765251,1062.85431 173.228441,1069.47397 169.932984,1075.5431 C166.520402,1081.83297 162.237372,1087.63348 157.613616,1093.08027 C152.888708,1098.64939 147.958831,1104.06959 142.965069,1109.39936 C133.451365,1119.55357 123.272182,1128.97641 112.326365,1137.57479 C111.258935,1138.41255 109.744303,1136.91521 110.819718,1136.06947 C122.34051,1127.02163 132.985529,1117.0456 142.938449,1106.30362 C143.640198,1105.54624 144.344238,1104.78794 145.049003,1104.02793 L146.459037,1102.5054 C154.684464,1093.60802 162.866584,1084.40776 168.519504,1073.6681 C171.607332,1067.79844 173.987089,1061.34368 174.290547,1054.66285 C174.55674,1048.78521 173.01815,1043.0964 169.874422,1038.12568 C163.706752,1028.37039 151.986317,1022.23478 140.414949,1024.38371 C128.920777,1026.51668 118.9998,1035.57781 116.425723,1047.04586 C116.366166,1047.31309 116.236502,1047.50423 116.069578,1047.62841 C116.253838,1048.88791 114.294503,1049.39067 114.001377,1048.09633 C111.057054,1034.99551 98.766898,1024.5439 85.1533907,1024.27449 C73.1316247,1024.03413 61.2932146,1031.49051 56.4701586,1042.45452 C53.4833185,1049.24529 52.3619247,1056.89448 53.9164634,1064.18181 C55.0033119,1069.28215 57.211554,1074.01535 60.060213,1078.36292 C65.6326363,1086.86789 72.5284106,1094.57519 79.5836247,1101.88101 C89.5193857,1112.16886 100.305493,1121.68016 111.851596,1130.15079 C112.941102,1130.9511 111.880827,1132.78416 110.778035,1131.97592 C97.4834071,1122.22162 85.132132,1111.14932 73.9819707,1099.02841 C70.0996099,1094.80763 66.3634024,1090.44949 62.869012,1085.90646 C60.4561553,1082.7686 58.0991026,1079.53566 56.1778522,1076.07028 C52.7073778,1069.80513 50.7303234,1062.66571 51.1342378,1055.48667 C51.5222081,1048.59817 53.7490516,1041.40857 57.8891734,1035.81695 C65.2924979,1025.81437 78.3612524,1020.23859 90.7204994,1022.79537 C101.786841,1025.08635 111.28807,1033.49671 115.042977,1044.04722 C118.888976,1031.98251 130.478392,1022.88507 143.135432,1021.90233 Z" id="Combined-Shape" stroke="#FFFFFF" stroke-width="8" stroke-linejoin="round" transform="translate(113.7666, 1079.8214) rotate(10) translate(-113.7666, -1079.8214)"></path>
                <path d="M278.561171,721.025831 C291.672505,716.445009 303.846498,724.667585 308.258856,736.886927 C312.465457,748.533666 311.91677,762.482269 310.853689,774.621447 C309.127611,794.296076 304.658098,813.764569 298.713988,832.557391 C296.942186,838.157445 288.11747,835.752514 289.900703,830.118103 C289.961154,829.926865 290.021544,829.735459 290.081868,829.543885 C277.743587,825.348256 265.881289,819.833317 254.863698,812.89912 C243.892957,806.000147 231.757081,797.671039 224.408646,786.847775 C218.052307,777.50041 216.875635,764.125784 227.938663,757.673013 C237.545259,752.056377 247.879742,755.389725 256.904923,760.30106 C258.124336,744.962197 263.056266,726.455906 278.561171,721.025831 Z M286.791476,729.030817 C269.622144,727.885612 266.135695,753.354981 265.769904,765.66594 C265.727617,767.029571 265.206245,768.077918 264.431706,768.810838 C263.6261,771.384867 260.810233,773.353108 257.863059,771.505282 C250.9876,767.191994 236.186906,758.107774 229.784424,768.244574 C224.443254,776.688093 236.106154,787.099478 241.701116,791.893292 C256.645539,804.705059 274.092151,814.430465 292.746229,820.790799 C299.476504,797.824506 304.515086,772.970572 301.720336,749.312406 C300.668686,740.356899 297.342271,729.740845 286.791476,729.030817 Z" id="Combined-Shape" stroke="#FFFFFF" stroke-width="2" stroke-linejoin="round" transform="translate(265.6113, 777.7409) rotate(24) translate(-265.6113, -777.7409)"></path>
                <path d="M409.79064,498.996878 C416.942277,496.548507 423.582637,500.943332 425.989378,507.47436 C428.283887,513.699341 427.984603,521.154629 427.404741,527.64281 C426.463244,538.15856 424.025327,548.564134 420.783086,558.608573 C419.816648,561.601706 415.003167,560.316311 415.975839,557.304816 L415.957893,557.366001 C409.613097,555.183622 403.51169,552.347301 397.832456,548.808766 C391.99991,545.177728 385.547925,540.793987 381.641162,535.097532 C378.261843,530.177866 377.63627,523.138589 383.51788,519.742394 C388.278521,516.986919 393.37539,518.324203 397.931335,520.611908 C398.50996,512.29893 401.11798,501.973092 409.79064,498.996878 Z M414.279897,503.275405 C404.914807,502.663312 403.013108,516.276251 402.813585,522.856246 C402.804844,523.132452 402.758573,523.384456 402.68148,523.612255 C403.918328,525.493308 401.749368,528.463989 399.427053,527.022536 C395.771745,524.752384 387.903022,519.971216 384.499171,525.306373 C381.659561,529.750331 387.860091,535.230007 390.834628,537.753067 C398.624915,544.364683 407.694133,549.414599 417.393413,552.764536 C421.13188,540.365958 423.965763,526.913424 422.422912,514.115564 C421.849285,509.329 420.034876,503.654902 414.279897,503.275405 Z" id="Combined-Shape" stroke="#FFFFFF" stroke-width="4" stroke-linejoin="round"></path>
                <path d="M364.658485,100.587646 C373.672452,93.8657617 383.873335,100.225813 386.387348,109.401219 C390.276292,106.919944 394.109821,104.995335 399.429074,106.035931 C406.016115,107.330395 409.309635,113.579213 407.459343,119.939783 C405.470278,126.7753 398.152372,131.729653 392.44422,135.259164 C385.54263,139.524378 377.928677,142.523066 370.41649,145.512441 L371.43679,145.106733 C369.0669,146.988062 364.471974,144.966466 365.414667,141.176187 C367.808652,131.497158 364.490158,125.960129 361.338701,116.924504 C359.22526,110.85413 359.019527,104.793081 364.658485,100.587646 Z M373.252519,105.268641 C371.52249,105.14742 369.549323,105.865421 368.380384,107.180202 C366.341756,109.483401 367.650967,112.420678 368.548712,114.94767 C371.409377,122.999557 373.932749,128.863648 373.648536,136.240422 C381.15455,133.160261 388.621344,129.688078 394.8496,124.447127 C396.625881,122.957096 398.698208,121.215622 399.817635,119.120266 C401.751191,115.50694 399.46608,112.787634 395.774746,113.32777 C392.919129,113.743737 389.379183,115.648554 385.15491,119.042222 C383.68979,119.927779 382.273143,119.673192 381.243943,118.867291 C380.033945,118.4031 379.167237,117.306338 379.368403,115.572424 C379.854682,111.432261 378.29298,105.632304 373.252519,105.268641 Z" id="Combined-Shape" transform="translate(383.9698, 121.805) scale(-1, 1) rotate(-60) translate(-383.9698, -121.805)"></path>
                <path d="M174.202196,310.398246 C181.674576,304.634076 192.398824,306.501988 198.452835,313.377738 C201.519567,316.864464 203.06978,320.918725 203.465787,325.124991 C206.662082,323.328772 210.309376,322.452995 214.677585,323.129842 C222.934103,324.401856 229.161086,331.14009 229.910631,339.402449 C231.778726,359.789046 203.907211,366.114736 188.731823,367.936809 C185.317669,368.34847 183.904902,365.440144 184.453149,362.784867 C173.649146,350.267924 157.49477,323.288803 174.202196,310.398246 Z M189.250738,317.42297 C183.265916,313.732985 177.223436,318.030328 176.623801,324.436235 C175.528313,336.205226 184.903382,349.750452 192.44495,357.944054 C192.533093,358.039978 192.616134,358.136942 192.69421,358.234807 C202.441705,356.758642 216.023316,353.397993 219.889801,344.742615 C222.495908,338.886768 218.413775,331.953721 211.737066,332.045397 C206.652642,332.107142 203.41872,336.465975 200.53221,340.200909 C200.186286,340.916067 199.739869,341.445253 199.233593,341.812988 C195.764884,345.405156 190.343173,340.255843 192.416132,335.947111 C192.471034,335.793558 192.534259,335.638694 192.60639,335.483272 C195.327812,329.604506 195.46619,321.26193 189.250738,317.42297 Z" id="Combined-Shape"></path>
                <path d="M165.46896,2.09165615 C169.964289,-1.43135862 176.415917,-0.289705721 180.057966,3.91269758 C181.932012,6.07739678 182.864702,8.60000607 183.084485,11.2143392 C184.991513,10.2183449 187.160984,9.7463473 189.740384,10.1367684 C194.803326,10.8987157 198.621745,14.9349766 199.08137,19.8842014 C200.192258,31.7266999 184.152828,35.6482455 174.695068,36.8699668 C174.003107,37.2026835 173.198084,37.2417302 172.456943,36.8074765 C172.013117,36.6151314 171.681991,36.2905851 171.462209,35.8936358 C165.010723,28.5380433 155.119254,10.2043544 165.46896,2.09165615 Z M174.522052,6.38511152 C170.921627,4.12982175 167.286516,6.75632381 166.92578,10.6715629 C166.305308,17.4437475 170.608773,26.176634 174.900728,31.3546629 C180.89196,30.5774301 190.379331,28.6749604 192.936543,23.0830068 C194.534622,19.5753038 192.031436,15.4223483 187.937242,15.4772634 C185.104899,15.5108625 183.209022,17.6687021 181.558598,19.7408456 C181.486942,19.9125471 181.411738,20.0833061 181.334417,20.2530424 C181.009042,20.9665901 180.526848,21.3888131 179.987152,21.5791199 C177.689379,23.3465709 174.378941,19.773772 176.474912,17.2208183 C176.577957,17.0953153 176.681313,16.9701627 176.78503,16.8454763 C178.176183,13.3026605 178.06495,8.60829185 174.522052,6.38511152 Z" id="Combined-Shape" transform="translate(180.0548, 18.5632) scale(-1, 1) translate(-180.0548, -18.5632)"></path>
                <path d="M41.4972481,609.322256 C48.1761047,605.218137 57.4951076,606.533189 62.3187262,612.992841 C66.4002497,618.455366 65.0444989,625.521965 63.3319716,631.620339 C60.4634883,641.808381 56.5532176,651.69295 53.8702581,661.924345 C53.7445723,662.39734 53.5404725,662.781692 53.2828845,663.084361 C55.3279118,665.22232 52.637655,669.294355 49.7050261,667.554452 C38.1996142,660.764324 26.2766091,655.248249 14.1808069,649.659786 C6.7217288,646.199571 -1.42853795,639.887213 0.213035212,630.5345 C1.60981238,622.571663 9.87527724,617.779483 17.4783529,617.982173 C23.405007,618.139536 28.8175274,620.889115 32.6421003,625.184321 C33.6776151,618.83251 36.1690289,612.599774 41.4972481,609.322256 Z M58.8794005,625.955499 C60.1780671,618.961155 57.3095838,612.414796 49.2036211,612.920586 C39.0997099,613.541984 37.6155195,626.533544 37.729688,634.58282 C37.7867722,638.31121 32.0783478,638.296758 32.0069925,634.58282 C31.7272918,634.355511 31.4815883,634.034938 31.2877272,633.618289 C28.2205773,626.987418 21.0494946,622.18076 13.5760167,624.207664 C8.85289396,625.496196 5.72814504,629.014322 6.33293516,633.893369 C6.93772527,638.801372 10.7392631,641.465303 14.8719956,643.593552 C18.8672757,645.657309 22.9019172,647.596478 26.9406671,649.514127 L30.4026366,651.15496 C36.4620168,654.026582 42.5079693,656.916053 48.4213946,660.171584 C51.4681226,648.705293 56.6955757,637.658575 58.8794005,625.955499 Z" id="Combined-Shape" stroke="#FFFFFF" stroke-width="4" stroke-linejoin="round"></path>
            </g>
        </g>
    </g>
</svg>