<?xml version="1.0" encoding="UTF-8"?>
<svg width="40px" height="38px" viewBox="0 0 40 38" version="1.1" xmlns="http://www.w3.org/2000/svg" xmlns:xlink="http://www.w3.org/1999/xlink">
    <title>heart-1</title>
    <g id="Page-1" stroke="none" stroke-width="1" fill="none" fill-rule="evenodd">
        <g id="Image" transform="translate(-3583, -2094)" fill="#FFFFFF" fill-rule="nonzero">
            <g id="Group-2" transform="translate(3423, 2094.024)">
                <path d="M165.46896,2.09165615 C169.964289,-1.43135862 176.415917,-0.289705721 180.057966,3.91269758 C181.932012,6.07739678 182.864702,8.60000607 183.084485,11.2143392 C184.991513,10.2183449 187.160984,9.7463473 189.740384,10.1367684 C194.803326,10.8987157 198.621745,14.9349766 199.08137,19.8842014 C200.192258,31.7266999 184.152828,35.6482455 174.695068,36.8699668 C174.003107,37.2026835 173.198084,37.2417302 172.456943,36.8074765 C172.013117,36.6151314 171.681991,36.2905851 171.462209,35.8936358 C165.010723,28.5380433 155.119254,10.2043544 165.46896,2.09165615 Z M174.522052,6.38511152 C170.921627,4.12982175 167.286516,6.75632381 166.92578,10.6715629 C166.305308,17.4437475 170.608773,26.176634 174.900728,31.3546629 C180.89196,30.5774301 190.379331,28.6749604 192.936543,23.0830068 C194.534622,19.5753038 192.031436,15.4223483 187.937242,15.4772634 C185.104899,15.5108625 183.209022,17.6687021 181.558598,19.7408456 C181.486942,19.9125471 181.411738,20.0833061 181.334417,20.2530424 C181.009042,20.9665901 180.526848,21.3888131 179.987152,21.5791199 C177.689379,23.3465709 174.378941,19.773772 176.474912,17.2208183 C176.577957,17.0953153 176.681313,16.9701627 176.78503,16.8454763 C178.176183,13.3026605 178.06495,8.60829185 174.522052,6.38511152 Z" id="heart-1" transform="translate(180.0548, 18.5632) scale(-1, 1) translate(-180.0548, -18.5632)"></path>
            </g>
        </g>
    </g>
</svg>