<?xml version="1.0" encoding="UTF-8"?>
<svg width="154px" height="146px" viewBox="0 0 154 146" version="1.1" xmlns="http://www.w3.org/2000/svg" xmlns:xlink="http://www.w3.org/1999/xlink">
    <title>heart-8</title>
    <g id="Page-1" stroke="none" stroke-width="1" fill="none" fill-rule="evenodd" stroke-linejoin="round">
        <g id="Image" transform="translate(-3460, -3101)" fill="#FFFFFF" fill-rule="nonzero" stroke="#FFFFFF" stroke-width="8">
            <g id="Group-2" transform="translate(3423, 2094.024)">
                <path d="M143.135432,1021.90233 C155.092778,1020.9768 166.658822,1028.0805 172.485765,1038.33046 C175.533664,1043.68949 176.856639,1049.78787 176.342888,1055.9288 C175.765251,1062.85431 173.228441,1069.47397 169.932984,1075.5431 C166.520402,1081.83297 162.237372,1087.63348 157.613616,1093.08027 C152.888708,1098.64939 147.958831,1104.06959 142.965069,1109.39936 C133.451365,1119.55357 123.272182,1128.97641 112.326365,1137.57479 C111.258935,1138.41255 109.744303,1136.91521 110.819718,1136.06947 C122.34051,1127.02163 132.985529,1117.0456 142.938449,1106.30362 C143.640198,1105.54624 144.344238,1104.78794 145.049003,1104.02793 L146.459037,1102.5054 C154.684464,1093.60802 162.866584,1084.40776 168.519504,1073.6681 C171.607332,1067.79844 173.987089,1061.34368 174.290547,1054.66285 C174.55674,1048.78521 173.01815,1043.0964 169.874422,1038.12568 C163.706752,1028.37039 151.986317,1022.23478 140.414949,1024.38371 C128.920777,1026.51668 118.9998,1035.57781 116.425723,1047.04586 C116.366166,1047.31309 116.236502,1047.50423 116.069578,1047.62841 C116.253838,1048.88791 114.294503,1049.39067 114.001377,1048.09633 C111.057054,1034.99551 98.766898,1024.5439 85.1533907,1024.27449 C73.1316247,1024.03413 61.2932146,1031.49051 56.4701586,1042.45452 C53.4833185,1049.24529 52.3619247,1056.89448 53.9164634,1064.18181 C55.0033119,1069.28215 57.211554,1074.01535 60.060213,1078.36292 C65.6326363,1086.86789 72.5284106,1094.57519 79.5836247,1101.88101 C89.5193857,1112.16886 100.305493,1121.68016 111.851596,1130.15079 C112.941102,1130.9511 111.880827,1132.78416 110.778035,1131.97592 C97.4834071,1122.22162 85.132132,1111.14932 73.9819707,1099.02841 C70.0996099,1094.80763 66.3634024,1090.44949 62.869012,1085.90646 C60.4561553,1082.7686 58.0991026,1079.53566 56.1778522,1076.07028 C52.7073778,1069.80513 50.7303234,1062.66571 51.1342378,1055.48667 C51.5222081,1048.59817 53.7490516,1041.40857 57.8891734,1035.81695 C65.2924979,1025.81437 78.3612524,1020.23859 90.7204994,1022.79537 C101.786841,1025.08635 111.28807,1033.49671 115.042977,1044.04722 C118.888976,1031.98251 130.478392,1022.88507 143.135432,1021.90233 Z" id="heart-8" transform="translate(113.7666, 1079.8214) rotate(10) translate(-113.7666, -1079.8214)"></path>
            </g>
        </g>
    </g>
</svg>