<?xml version="1.0" encoding="UTF-8"?>
<svg width="63px" height="61px" viewBox="0 0 63 61" version="1.1" xmlns="http://www.w3.org/2000/svg" xmlns:xlink="http://www.w3.org/1999/xlink">
    <title>heart-3</title>
    <g id="Page-1" stroke="none" stroke-width="1" fill="none" fill-rule="evenodd">
        <g id="Image" transform="translate(-3590, -2401)" fill="#FFFFFF" fill-rule="nonzero">
            <g id="Group-2" transform="translate(3423, 2094.024)">
                <path d="M174.202196,310.398246 C181.674576,304.634076 192.398824,306.501988 198.452835,313.377738 C201.519567,316.864464 203.06978,320.918725 203.465787,325.124991 C206.662082,323.328772 210.309376,322.452995 214.677585,323.129842 C222.934103,324.401856 229.161086,331.14009 229.910631,339.402449 C231.778726,359.789046 203.907211,366.114736 188.731823,367.936809 C185.317669,368.34847 183.904902,365.440144 184.453149,362.784867 C173.649146,350.267924 157.49477,323.288803 174.202196,310.398246 Z M189.250738,317.42297 C183.265916,313.732985 177.223436,318.030328 176.623801,324.436235 C175.528313,336.205226 184.903382,349.750452 192.44495,357.944054 C192.533093,358.039978 192.616134,358.136942 192.69421,358.234807 C202.441705,356.758642 216.023316,353.397993 219.889801,344.742615 C222.495908,338.886768 218.413775,331.953721 211.737066,332.045397 C206.652642,332.107142 203.41872,336.465975 200.53221,340.200909 C200.186286,340.916067 199.739869,341.445253 199.233593,341.812988 C195.764884,345.405156 190.343173,340.255843 192.416132,335.947111 C192.471034,335.793558 192.534259,335.638694 192.60639,335.483272 C195.327812,329.604506 195.46619,321.26193 189.250738,317.42297 Z" id="heart-3"></path>
            </g>
        </g>
    </g>
</svg>