<?xml version="1.0" encoding="UTF-8"?>
<svg width="70px" height="66px" viewBox="0 0 70 66" version="1.1" xmlns="http://www.w3.org/2000/svg" xmlns:xlink="http://www.w3.org/1999/xlink">
    <title>heart-5</title>
    <g id="Page-1" stroke="none" stroke-width="1" fill="none" fill-rule="evenodd" stroke-linejoin="round">
        <g id="Image" transform="translate(-3421, -2699)" fill="#FFFFFF" fill-rule="nonzero" stroke="#FFFFFF" stroke-width="4">
            <g id="Group-2" transform="translate(3423, 2094.024)">
                <path d="M41.4972481,609.322256 C48.1761047,605.218137 57.4951076,606.533189 62.3187262,612.992841 C66.4002497,618.455366 65.0444989,625.521965 63.3319716,631.620339 C60.4634883,641.808381 56.5532176,651.69295 53.8702581,661.924345 C53.7445723,662.39734 53.5404725,662.781692 53.2828845,663.084361 C55.3279118,665.22232 52.637655,669.294355 49.7050261,667.554452 C38.1996142,660.764324 26.2766091,655.248249 14.1808069,649.659786 C6.7217288,646.199571 -1.42853795,639.887213 0.213035212,630.5345 C1.60981238,622.571663 9.87527724,617.779483 17.4783529,617.982173 C23.405007,618.139536 28.8175274,620.889115 32.6421003,625.184321 C33.6776151,618.83251 36.1690289,612.599774 41.4972481,609.322256 Z M58.8794005,625.955499 C60.1780671,618.961155 57.3095838,612.414796 49.2036211,612.920586 C39.0997099,613.541984 37.6155195,626.533544 37.729688,634.58282 C37.7867722,638.31121 32.0783478,638.296758 32.0069925,634.58282 C31.7272918,634.355511 31.4815883,634.034938 31.2877272,633.618289 C28.2205773,626.987418 21.0494946,622.18076 13.5760167,624.207664 C8.85289396,625.496196 5.72814504,629.014322 6.33293516,633.893369 C6.93772527,638.801372 10.7392631,641.465303 14.8719956,643.593552 C18.8672757,645.657309 22.9019172,647.596478 26.9406671,649.514127 L30.4026366,651.15496 C36.4620168,654.026582 42.5079693,656.916053 48.4213946,660.171584 C51.4681226,648.705293 56.6955757,637.658575 58.8794005,625.955499 Z" id="heart-5"></path>
            </g>
        </g>
    </g>
</svg>