<?xml version="1.0" encoding="UTF-8"?>
<svg width="66px" height="66px" viewBox="0 0 66 66" version="1.1" xmlns="http://www.w3.org/2000/svg" xmlns:xlink="http://www.w3.org/1999/xlink">
    <title>heart-2</title>
    <g id="Page-1" stroke="none" stroke-width="1" fill="none" fill-rule="evenodd">
        <g id="Image" transform="translate(-3774, -2183)" fill="#FFFFFF" fill-rule="nonzero">
            <g id="Group-2" transform="translate(3423, 2094.024)">
                <path d="M364.658485,100.587646 C373.672452,93.8657617 383.873335,100.225813 386.387348,109.401219 C390.276292,106.919944 394.109821,104.995335 399.429074,106.035931 C406.016115,107.330395 409.309635,113.579213 407.459343,119.939783 C405.470278,126.7753 398.152372,131.729653 392.44422,135.259164 C385.54263,139.524378 377.928677,142.523066 370.41649,145.512441 L371.43679,145.106733 C369.0669,146.988062 364.471974,144.966466 365.414667,141.176187 C367.808652,131.497158 364.490158,125.960129 361.338701,116.924504 C359.22526,110.85413 359.019527,104.793081 364.658485,100.587646 Z M373.252519,105.268641 C371.52249,105.14742 369.549323,105.865421 368.380384,107.180202 C366.341756,109.483401 367.650967,112.420678 368.548712,114.94767 C371.409377,122.999557 373.932749,128.863648 373.648536,136.240422 C381.15455,133.160261 388.621344,129.688078 394.8496,124.447127 C396.625881,122.957096 398.698208,121.215622 399.817635,119.120266 C401.751191,115.50694 399.46608,112.787634 395.774746,113.32777 C392.919129,113.743737 389.379183,115.648554 385.15491,119.042222 C383.68979,119.927779 382.273143,119.673192 381.243943,118.867291 C380.033945,118.4031 379.167237,117.306338 379.368403,115.572424 C379.854682,111.432261 378.29298,105.632304 373.252519,105.268641 Z" id="heart-2" transform="translate(383.9698, 121.805) scale(-1, 1) rotate(-60) translate(-383.9698, -121.805)"></path>
            </g>
        </g>
    </g>
</svg>