<?xml version="1.0" encoding="UTF-8"?>
<svg width="53px" height="67px" viewBox="0 0 53 67" version="1.1" xmlns="http://www.w3.org/2000/svg" xmlns:xlink="http://www.w3.org/1999/xlink">
    <title>heart-4</title>
    <g id="Page-1" stroke="none" stroke-width="1" fill="none" fill-rule="evenodd" stroke-linejoin="round">
        <g id="Image" transform="translate(-3800, -2590)" fill="#FFFFFF" fill-rule="nonzero" stroke="#FFFFFF" stroke-width="4">
            <g id="Group-2" transform="translate(3423, 2094.024)">
                <path d="M409.79064,498.996878 C416.942277,496.548507 423.582637,500.943332 425.989378,507.47436 C428.283887,513.699341 427.984603,521.154629 427.404741,527.64281 C426.463244,538.15856 424.025327,548.564134 420.783086,558.608573 C419.816648,561.601706 415.003167,560.316311 415.975839,557.304816 L415.957893,557.366001 C409.613097,555.183622 403.51169,552.347301 397.832456,548.808766 C391.99991,545.177728 385.547925,540.793987 381.641162,535.097532 C378.261843,530.177866 377.63627,523.138589 383.51788,519.742394 C388.278521,516.986919 393.37539,518.324203 397.931335,520.611908 C398.50996,512.29893 401.11798,501.973092 409.79064,498.996878 Z M414.279897,503.275405 C404.914807,502.663312 403.013108,516.276251 402.813585,522.856246 C402.804844,523.132452 402.758573,523.384456 402.68148,523.612255 C403.918328,525.493308 401.749368,528.463989 399.427053,527.022536 C395.771745,524.752384 387.903022,519.971216 384.499171,525.306373 C381.659561,529.750331 387.860091,535.230007 390.834628,537.753067 C398.624915,544.364683 407.694133,549.414599 417.393413,552.764536 C421.13188,540.365958 423.965763,526.913424 422.422912,514.115564 C421.849285,509.329 420.034876,503.654902 414.279897,503.275405 Z" id="heart-4"></path>
            </g>
        </g>
    </g>
</svg>