<svg xmlns="http://www.w3.org/2000/svg"  viewBox="0 0 80 80" width="80px" height="80px"><path d="M 39.939453 1.8652344 L 39.076172 3.4882812 L 33.263672 14.40625 L 21 7.2128906 L 21 21 L 7.1894531 21 L 14.542969 33.216797 L 1.859375 39.939453 L 14.455078 46.914062 L 7.1894531 59 L 21 59 L 21 72.707031 L 33.171875 65.541016 L 39.955078 78.050781 L 46.777344 65.539062 L 59 72.703125 L 59 59 L 72.695312 59 L 65.675781 46.914062 L 78.025391 39.939453 L 65.587891 33.216797 L 72.697266 21 L 59 21 L 59 7.1796875 L 46.960938 14.5 L 39.939453 1.8652344 z M 39.976562 6.0507812 L 46.222656 17.291016 L 57 10.736328 L 57 23 L 69.21875 23 L 62.820312 33.996094 L 73.890625 39.978516 L 62.929688 46.169922 L 69.220703 57 L 57 57 L 57 69.212891 L 46.007812 62.769531 L 39.960938 73.863281 L 33.941406 62.767578 L 23 69.208984 L 23 57 L 10.726562 57 L 17.236328 46.169922 L 6.0566406 39.978516 L 17.345703 33.996094 L 10.726562 23 L 23 23 L 23 10.703125 L 34.050781 17.185547 L 39.976562 6.0507812 z M 37.912109 15.003906 C 37.362109 15.054906 36.963906 15.533984 37.003906 16.083984 C 37.043906 16.633984 37.532031 17.044141 38.082031 16.994141 C 38.602031 16.954141 39.003906 16.514906 39.003906 16.003906 C 39.003906 15.974906 39.002187 15.944062 38.992188 15.914062 C 38.952188 15.364062 38.472109 14.953906 37.912109 15.003906 z M 42.074219 15.007812 C 41.524219 14.957813 41.043906 15.367969 41.003906 15.917969 C 40.953906 16.467969 41.364063 16.956094 41.914062 16.996094 C 42.464062 17.036094 42.944141 16.626172 42.994141 16.076172 L 42.994141 15.996094 C 42.994141 15.486094 42.604219 15.047812 42.074219 15.007812 z M 29.638672 17.234375 C 29.515 17.242531 29.389281 17.274281 29.269531 17.332031 C 28.768531 17.565031 28.559781 18.16025 28.800781 18.65625 C 29.033781 19.15725 29.632906 19.375766 30.128906 19.134766 C 30.624906 18.893766 30.835516 18.299828 30.603516 17.798828 C 30.593516 17.781828 30.5775 17.754516 30.5625 17.728516 C 30.3705 17.397766 30.009687 17.209906 29.638672 17.234375 z M 50.345703 17.234375 C 49.957953 17.219938 49.581141 17.434641 49.400391 17.806641 C 49.159391 18.302641 49.377906 18.901766 49.878906 19.134766 C 50.348906 19.360766 50.914875 19.182234 51.171875 18.740234 C 51.186875 18.715234 51.201031 18.68725 51.207031 18.65625 C 51.448031 18.16025 51.240469 17.566125 50.730469 17.328125 C 50.605219 17.270125 50.474953 17.239187 50.345703 17.234375 z M 40 19 C 28.413865 19 19 28.413865 19 40 C 19 51.586135 28.413865 61 40 61 C 51.586135 61 61 51.586135 61 40 C 61 28.413865 51.586135 19 40 19 z M 26.417969 19.246094 C 26.166469 19.200969 25.897969 19.252063 25.667969 19.414062 C 25.217969 19.734063 25.111875 20.350641 25.421875 20.806641 C 25.731875 21.261641 26.3615 21.371734 26.8125 21.052734 C 27.2425 20.757734 27.367328 20.176375 27.111328 19.734375 C 27.096328 19.708375 27.082594 19.681156 27.058594 19.660156 C 26.903594 19.432656 26.669469 19.291219 26.417969 19.246094 z M 53.583984 19.251953 C 53.333609 19.297578 53.100313 19.439969 52.945312 19.667969 C 52.626312 20.118969 52.735406 20.747594 53.191406 21.058594 C 53.647406 21.369594 54.268891 21.254687 54.587891 20.804688 C 54.597891 20.787687 54.613906 20.761375 54.628906 20.734375 C 54.883906 20.293375 54.767125 19.718969 54.328125 19.417969 C 54.102625 19.258469 53.834359 19.206328 53.583984 19.251953 z M 40 21 C 50.505255 21 59 29.494745 59 40 C 59 50.505255 50.505255 59 40 59 C 29.494745 59 21 50.505255 21 40 C 21 29.494745 29.494745 21 40 21 z M 20.386719 25.246094 C 20.024563 25.191719 19.645672 25.340672 19.419922 25.669922 C 19.100922 26.120922 19.213922 26.740781 19.669922 27.050781 C 20.120922 27.368781 20.749547 27.260687 21.060547 26.804688 C 21.370547 26.348688 21.256641 25.727203 20.806641 25.408203 C 20.789641 25.399203 20.763328 25.385141 20.736328 25.369141 C 20.626078 25.305391 20.507437 25.264219 20.386719 25.246094 z M 59.939453 25.255859 C 59.688703 25.211984 59.419406 25.262969 59.191406 25.417969 C 58.735406 25.727969 58.626312 26.357594 58.945312 26.808594 C 59.240312 27.238594 59.821672 27.365375 60.263672 27.109375 C 60.289672 27.094375 60.316891 27.078688 60.337891 27.054688 C 60.793891 26.744688 60.906031 26.124063 60.582031 25.664062 C 60.422031 25.438562 60.190203 25.299734 59.939453 25.255859 z M 18.275391 28.691406 C 17.887641 28.672656 17.506625 28.885828 17.328125 29.267578 C 17.096125 29.768578 17.310641 30.354703 17.806641 30.595703 C 18.302641 30.836703 18.903719 30.618188 19.136719 30.117188 C 19.363719 29.647188 19.182234 29.081219 18.740234 28.824219 C 18.715234 28.810219 18.689203 28.795063 18.658203 28.789062 C 18.534203 28.728813 18.404641 28.697656 18.275391 28.691406 z M 61.724609 28.699219 C 61.595438 28.705609 61.465797 28.738578 61.341797 28.798828 C 60.841797 29.031828 60.622281 29.630953 60.863281 30.126953 C 61.104281 30.621953 61.700172 30.831609 62.201172 30.599609 C 62.218172 30.589609 62.244484 30.575547 62.271484 30.560547 C 62.712484 30.304547 62.897016 29.746578 62.666016 29.267578 C 62.491266 28.892578 62.112125 28.680047 61.724609 28.699219 z M 63.916016 37.003906 C 63.366016 37.043906 62.955859 37.532031 63.005859 38.082031 C 63.045859 38.602031 63.485094 39.003906 63.996094 39.003906 C 64.025094 39.003906 64.055937 39.002187 64.085938 38.992188 C 64.635938 38.952188 65.046094 38.472109 64.996094 37.912109 C 64.945094 37.362109 64.466016 36.963906 63.916016 37.003906 z M 15.996094 37.005859 C 15.486094 37.005859 15.047812 37.395781 15.007812 37.925781 C 14.957813 38.475781 15.367969 38.956094 15.917969 38.996094 C 16.467969 39.046094 16.956094 38.635937 16.996094 38.085938 C 17.036094 37.535938 16.626172 37.055859 16.076172 37.005859 L 15.996094 37.005859 z M 16.003906 40.996094 C 15.974906 40.996094 15.944062 40.997813 15.914062 41.007812 C 15.364062 41.047812 14.953906 41.527891 15.003906 42.087891 C 15.054906 42.637891 15.533984 43.036094 16.083984 42.996094 C 16.633984 42.956094 17.044141 42.467969 16.994141 41.917969 C 16.954141 41.397969 16.514906 40.996094 16.003906 40.996094 z M 64.082031 41.003906 C 63.532031 40.953906 63.043906 41.364063 63.003906 41.914062 C 62.963906 42.464062 63.373828 42.944141 63.923828 42.994141 L 64.003906 42.994141 C 64.513906 42.994141 64.952187 42.604219 64.992188 42.074219 C 65.042187 41.524219 64.632031 41.043906 64.082031 41.003906 z M 18.150391 49.226562 C 18.020281 49.231281 17.889172 49.260859 17.763672 49.318359 C 17.746672 49.327359 17.721313 49.341422 17.695312 49.357422 C 17.253312 49.611422 17.065922 50.168438 17.294922 50.648438 C 17.525922 51.149437 18.120188 51.362047 18.617188 51.123047 C 19.118187 50.893047 19.338609 50.293875 19.099609 49.796875 C 18.920359 49.424875 18.540719 49.212406 18.150391 49.226562 z M 61.775391 49.384766 C 61.386516 49.366437 61.004375 49.580078 60.828125 49.955078 C 60.600125 50.425078 60.77875 50.993 61.21875 51.25 C 61.24475 51.264 61.269781 51.279156 61.300781 51.285156 C 61.795781 51.528156 62.392812 51.3215 62.632812 50.8125 C 62.866813 50.3125 62.653203 49.725422 62.158203 49.482422 C 62.034453 49.421672 61.905016 49.390875 61.775391 49.384766 z M 20.039062 52.695312 C 19.917797 52.712297 19.79825 52.750953 19.6875 52.814453 C 19.6615 52.829453 19.636234 52.845141 19.615234 52.869141 C 19.159234 53.178141 19.041281 53.798766 19.363281 54.259766 C 19.681281 54.711766 20.296906 54.818766 20.753906 54.509766 C 21.209906 54.200766 21.322859 53.571141 21.005859 53.119141 C 20.785359 52.795891 20.402859 52.644359 20.039062 52.695312 z M 59.537109 52.851562 C 59.284359 52.894938 59.048578 53.034219 58.892578 53.261719 C 58.580578 53.716719 58.691625 54.337203 59.140625 54.658203 C 59.157625 54.668203 59.183937 54.684219 59.210938 54.699219 C 59.650938 54.956219 60.227297 54.842297 60.529297 54.404297 C 60.849297 53.954297 60.737203 53.333484 60.283203 53.021484 C 60.058203 52.861484 59.789859 52.808187 59.537109 52.851562 z M 25.988281 58.730469 C 25.736031 58.775594 25.502297 58.916125 25.341797 59.140625 C 25.331797 59.157625 25.315781 59.183937 25.300781 59.210938 C 25.043781 59.650938 25.157703 60.227297 25.595703 60.529297 C 26.045703 60.849297 26.666516 60.737203 26.978516 60.283203 C 27.298516 59.833203 27.193281 59.204578 26.738281 58.892578 C 26.510781 58.736578 26.240531 58.685344 25.988281 58.730469 z M 53.869141 58.830078 C 53.616766 58.784703 53.345141 58.835641 53.119141 58.994141 C 52.688141 59.288141 52.560453 59.8695 52.814453 60.3125 C 52.829453 60.3385 52.845141 60.363766 52.869141 60.384766 C 53.178141 60.840766 53.798766 60.958719 54.259766 60.636719 C 54.711766 60.318719 54.818766 59.703094 54.509766 59.246094 C 54.355266 59.018094 54.121516 58.875453 53.869141 58.830078 z M 29.679688 60.730469 C 29.309891 60.704969 28.94275 60.88875 28.75 61.21875 C 28.736 61.24475 28.720844 61.269781 28.714844 61.300781 C 28.471844 61.795781 28.6785 62.392812 29.1875 62.632812 C 29.6875 62.866813 30.274578 62.653203 30.517578 62.158203 C 30.760578 61.663203 30.544922 61.063125 30.044922 60.828125 C 29.927422 60.771125 29.802953 60.738969 29.679688 60.730469 z M 50.181641 60.804688 C 50.051906 60.80975 49.921125 60.840641 49.796875 60.900391 C 49.300875 61.139391 49.088359 61.734328 49.318359 62.236328 C 49.327359 62.253328 49.341422 62.278688 49.357422 62.304688 C 49.611422 62.746688 50.168438 62.934078 50.648438 62.705078 C 51.149437 62.474078 51.362047 61.879812 51.123047 61.382812 C 50.950547 61.007063 50.570844 60.7895 50.181641 60.804688 z M 38.085938 63.003906 C 37.535938 62.963906 37.055859 63.373828 37.005859 63.923828 L 37.005859 64.003906 C 37.005859 64.513906 37.395781 64.952187 37.925781 64.992188 C 38.475781 65.042187 38.956094 64.632031 38.996094 64.082031 C 39.046094 63.532031 38.635937 63.043906 38.085938 63.003906 z M 41.917969 63.005859 C 41.397969 63.045859 40.996094 63.485094 40.996094 63.996094 C 40.996094 64.025094 40.997813 64.055937 41.007812 64.085938 C 41.047812 64.635938 41.527891 65.046094 42.087891 64.996094 C 42.637891 64.945094 43.036094 64.466016 42.996094 63.916016 C 42.956094 63.366016 42.467969 62.955859 41.917969 63.005859 z"/></svg>