<?xml version="1.0"?><svg xmlns="http://www.w3.org/2000/svg"  viewBox="0 0 64 64" width="64px" height="64px">    <path d="M 31.814453 3.0039062 C 30.919469 3.0443594 30.062297 3.3730781 29.373047 3.9550781 C 28.469047 4.7170781 27.951172 5.827 27.951172 7 L 27.951172 9.0820312 L 27.484375 8.6210938 C 26.276375 7.4330938 24.411734 7.1747656 23.052734 8.0097656 C 22.107734 8.5907656 21.494094 9.5383281 21.371094 10.611328 C 21.249094 11.679328 21.620625 12.727328 22.390625 13.486328 L 27.951172 18.960938 L 27.951172 22.865234 C 27.848172 23.020234 27.626844 23.295344 27.214844 23.527344 C 26.811844 23.756344 26.278453 23.867062 25.939453 23.914062 L 22.564453 21.982422 L 20.578125 14.589844 C 20.167125 13.065844 18.832031 11.959437 17.332031 11.898438 C 16.167031 11.853437 15.068469 12.334563 14.355469 13.226562 C 13.666469 14.088563 13.426891 15.237828 13.712891 16.298828 L 13.908203 17.027344 L 12.220703 16.060547 C 10.437703 15.040547 8.22675 15.365891 6.96875 16.837891 C 6.18675 17.752891 5.8536406 18.946281 6.0566406 20.113281 C 6.2596406 21.287281 6.9755781 22.301437 8.0175781 22.898438 L 9.8105469 23.925781 L 9.2421875 24.072266 C 7.3431875 24.567266 6.1253437 26.439094 6.5273438 28.246094 C 6.7353438 29.182094 7.3020469 29.974563 8.1230469 30.476562 C 8.9450469 30.979562 9.9527188 31.128812 10.886719 30.882812 L 18.501953 28.900391 L 22.185547 31.007812 C 22.301547 31.303813 22.426063 31.713422 22.414062 31.982422 C 22.405062 32.334422 22.275922 32.753203 22.169922 33.033203 L 18.509766 35.140625 L 11.027344 33.208984 C 9.3793438 32.783984 7.6377188 33.488766 6.8867188 34.884766 C 6.3687187 35.846766 6.3160938 36.963266 6.7460938 37.947266 C 7.1820937 38.944266 8.0425156 39.674266 9.1035156 39.947266 L 9.8320312 40.134766 L 8.1875 41.080078 C 6.4225 42.096078 5.5993906 44.210047 6.2753906 45.998047 C 6.6973906 47.113047 7.5812187 47.982813 8.6992188 48.382812 C 9.8322188 48.786812 11.075234 48.678125 12.115234 48.078125 L 13.947266 47.023438 L 13.753906 47.753906 C 13.512906 48.661906 13.642047 49.608969 14.123047 50.417969 C 14.550047 51.137969 15.224484 51.681125 16.021484 51.953125 C 16.926484 52.260125 17.905344 52.174031 18.777344 51.707031 C 19.698344 51.213031 20.380484 50.358422 20.646484 49.357422 L 22.591797 42.046875 L 25.978516 40.097656 C 26.384516 40.146656 26.897141 40.262875 27.119141 40.421875 C 27.141141 40.437875 27.1645 40.450844 27.1875 40.464844 C 27.1885 40.465844 27.190406 40.465797 27.191406 40.466797 C 27.493406 40.650797 27.777125 40.974125 27.953125 41.203125 L 27.953125 45.046875 L 22.494141 50.421875 C 21.279141 51.618875 21.014234 53.468266 21.865234 54.822266 C 22.448234 55.748266 23.399562 56.351562 24.476562 56.476562 C 25.558562 56.592563 26.618672 56.237469 27.388672 55.480469 L 27.955078 54.923828 L 27.955078 56.833984 C 27.955078 58.845984 29.385203 60.6105 31.283203 60.9375 C 31.520203 60.9785 31.760094 60.999047 31.996094 60.998047 C 32.958094 60.998047 33.889094 60.666922 34.621094 60.044922 C 35.524094 59.282922 36.044922 58.173 36.044922 57 L 36.044922 54.919922 L 36.609375 55.476562 C 37.276375 56.135562 38.162469 56.496094 39.105469 56.496094 C 40.313469 56.496094 41.431656 55.890047 42.097656 54.873047 C 42.987656 53.507047 42.733187 51.629203 41.492188 50.408203 L 36.042969 45.042969 L 36.042969 41.201172 C 36.208969 40.994172 36.492641 40.698641 36.806641 40.556641 C 36.842641 40.540641 36.888828 40.515141 36.923828 40.494141 C 37.278828 40.279141 37.756172 40.156656 38.076172 40.097656 L 41.429688 42.017578 L 43.417969 49.410156 C 43.828969 50.934156 45.161109 52.040563 46.662109 52.101562 C 47.862109 52.152563 48.926672 51.664437 49.638672 50.773438 C 50.327672 49.911438 50.568203 48.764125 50.283203 47.703125 L 50.087891 46.974609 L 51.921875 48.023438 C 52.961875 48.618437 54.210844 48.729312 55.339844 48.320312 C 56.456844 47.916313 57.336859 47.046641 57.755859 45.931641 C 58.427859 44.141641 57.602891 42.029531 55.837891 41.019531 L 54.1875 40.074219 L 54.914062 39.886719 C 55.828063 39.648719 56.592359 39.073578 57.068359 38.267578 C 57.681359 37.228578 57.712391 35.960953 57.150391 34.876953 C 56.403391 33.439953 54.637891 32.716297 52.962891 33.154297 L 45.496094 35.099609 L 41.839844 33.007812 C 41.780844 32.804812 41.707313 32.470438 41.695312 32.023438 C 41.730313 31.606437 41.817719 31.203641 41.886719 30.931641 L 45.488281 28.859375 L 52.96875 30.791016 C 54.61975 31.217016 56.361281 30.510281 57.113281 29.113281 C 57.631281 28.152281 57.681953 27.034781 57.251953 26.050781 C 56.815953 25.054781 55.957484 24.325734 54.896484 24.052734 L 54.167969 23.865234 L 55.8125 22.917969 C 57.5765 21.900969 58.398656 19.787953 57.722656 18.001953 C 57.300656 16.886953 56.418781 16.017187 55.300781 15.617188 C 54.169781 15.212187 52.924766 15.322875 51.884766 15.921875 L 50.052734 16.976562 L 50.212891 16.376953 C 50.647891 14.738953 49.929953 13.011531 48.501953 12.269531 C 47.517953 11.759531 46.378859 11.717203 45.380859 12.158203 C 44.396859 12.594203 43.676344 13.435844 43.402344 14.464844 L 41.408203 21.953125 L 38.046875 23.888672 C 37.694875 23.829672 37.157141 23.706141 36.744141 23.494141 C 36.456141 23.345141 36.190875 23.026219 36.046875 22.824219 L 36.046875 18.951172 L 41.505859 13.578125 C 42.722859 12.381125 42.986766 10.529781 42.134766 9.1757812 C 41.551766 8.2497813 40.600437 7.6464844 39.523438 7.5214844 C 38.437438 7.4014844 37.382281 7.7605781 36.613281 8.5175781 L 36.048828 9.0761719 L 36.048828 7.1640625 C 36.048828 5.1520625 34.61775 3.3875469 32.71875 3.0605469 C 32.41675 3.0082969 32.112781 2.9904219 31.814453 3.0039062 z M 31.916016 5.0019531 C 32.069391 4.9956094 32.227266 5.00525 32.384766 5.03125 C 33.335766 5.19525 34.052734 6.1130156 34.052734 7.1660156 L 34.052734 11.40625 C 34.052734 11.81225 34.340797 12.195609 34.716797 12.349609 C 35.086797 12.497609 35.511875 12.415719 35.796875 12.136719 L 38.021484 9.9453125 C 38.357484 9.6143125 38.819828 9.4537188 39.298828 9.5117188 C 39.776828 9.5657188 40.183312 9.8261875 40.445312 10.242188 C 40.800313 10.807187 40.659422 11.611297 40.107422 12.154297 L 34.357422 17.816406 C 34.165422 18.006406 34.050781 18.274922 34.050781 18.544922 L 34.050781 23.107422 C 34.050781 23.214422 34.069516 23.320828 34.103516 23.423828 C 34.121516 23.480828 34.152641 23.550516 34.181641 23.603516 C 34.244641 23.720516 34.836937 24.763391 35.835938 25.275391 C 36.837938 25.790391 38.020344 25.909875 38.152344 25.921875 C 38.226344 25.926875 38.325344 25.923109 38.402344 25.912109 C 38.528344 25.893109 38.649766 25.851063 38.759766 25.789062 L 42.761719 23.486328 C 42.895719 23.409328 43.019469 23.286203 43.105469 23.158203 C 43.166469 23.067203 43.212234 22.966328 43.240234 22.861328 L 45.339844 14.980469 C 45.456844 14.540469 45.767359 14.178234 46.193359 13.990234 C 46.639359 13.794234 47.135937 13.813875 47.585938 14.046875 C 48.187938 14.358875 48.481203 15.124234 48.283203 15.865234 L 47.521484 18.724609 C 47.415484 19.110609 47.561953 19.548875 47.876953 19.796875 C 48.196953 20.050875 48.667484 20.084859 49.021484 19.880859 L 52.884766 17.65625 C 53.414766 17.35225 54.050906 17.294953 54.628906 17.501953 C 55.202906 17.706953 55.638469 18.137937 55.855469 18.710938 C 56.188469 19.590937 55.742359 20.6555 54.818359 21.1875 L 51.099609 23.326172 C 50.747609 23.529172 50.560234 23.971047 50.615234 24.373047 C 50.670234 24.775047 50.961469 25.105031 51.355469 25.207031 L 54.400391 25.992188 C 54.861391 26.110188 55.233875 26.426469 55.421875 26.855469 C 55.607875 27.278469 55.584469 27.743969 55.355469 28.167969 C 55.039469 28.755969 54.233609 29.054469 53.474609 28.855469 L 45.607422 26.826172 C 45.480422 26.793172 45.329266 26.790594 45.197266 26.808594 C 45.071266 26.827594 44.949844 26.869641 44.839844 26.931641 L 40.550781 29.398438 C 40.434781 29.466437 40.332953 29.559016 40.251953 29.666016 C 40.180953 29.757016 40.123891 29.860703 40.087891 29.970703 C 40.074891 30.008703 39.778125 30.918922 39.703125 31.919922 C 39.700125 31.955922 39.698219 31.991344 39.699219 32.027344 C 39.728219 33.295344 40.074578 34.017391 40.142578 34.150391 C 40.159578 34.181391 40.177266 34.213187 40.197266 34.242188 C 40.212266 34.266187 40.241766 34.306125 40.259766 34.328125 C 40.338766 34.425125 40.436922 34.510266 40.544922 34.572266 L 44.851562 37.037109 C 44.961563 37.100109 45.101562 37.143109 45.226562 37.162109 C 45.358562 37.182109 45.491141 37.174625 45.619141 37.140625 L 53.46875 35.095703 C 54.24175 34.893703 55.064906 35.197734 55.378906 35.802734 C 55.625906 36.276734 55.614609 36.805906 55.349609 37.253906 C 55.143609 37.600906 54.810109 37.849125 54.412109 37.953125 L 51.371094 38.746094 C 51.024094 38.836094 50.753203 39.105172 50.658203 39.451172 C 50.474203 40.125172 50.980484 40.506813 51.146484 40.632812 C 51.179484 40.657812 51.215953 40.682125 51.251953 40.703125 L 54.847656 42.761719 C 55.770656 43.290719 56.217719 44.351422 55.886719 45.232422 C 55.671719 45.806422 55.236063 46.237359 54.664062 46.443359 C 54.086062 46.653359 53.450922 46.597969 52.919922 46.292969 L 49.033203 44.070312 C 48.689203 43.878312 48.236828 43.914391 47.923828 44.150391 C 47.597828 44.395391 47.445781 44.840375 47.550781 45.234375 L 48.355469 48.228516 C 48.478469 48.684516 48.378078 49.15925 48.080078 49.53125 C 47.897078 49.76025 47.480047 50.136375 46.748047 50.109375 C 46.112047 50.084375 45.539516 49.584484 45.353516 48.896484 L 43.259766 41.113281 C 43.227766 40.994281 43.170656 40.876391 43.097656 40.775391 C 43.067656 40.734391 43.026234 40.686391 42.990234 40.650391 C 42.927234 40.588391 42.856297 40.534234 42.779297 40.490234 L 38.783203 38.201172 C 38.658203 38.130172 38.519953 38.087219 38.376953 38.074219 C 38.311953 38.066219 38.244687 38.065266 38.179688 38.072266 C 38.048688 38.084266 36.866844 38.202047 35.964844 38.748047 C 35.957844 38.752047 35.951359 38.755766 35.943359 38.759766 C 34.905359 39.246766 34.271156 40.241687 34.160156 40.429688 C 34.138156 40.471688 34.114609 40.531172 34.099609 40.576172 C 34.065609 40.678172 34.048828 40.785578 34.048828 40.892578 L 34.048828 45.455078 C 34.048828 45.562078 34.073422 45.686062 34.107422 45.789062 C 34.157422 45.938062 34.240516 46.074547 34.353516 46.185547 L 40.095703 51.837891 C 40.651703 52.384891 40.793734 53.21925 40.427734 53.78125 C 39.900734 54.58825 38.689578 54.714687 38.017578 54.054688 L 35.777344 51.847656 C 35.486344 51.575656 35.032969 51.495297 34.667969 51.654297 C 34.301969 51.812297 34.048828 52.19475 34.048828 52.59375 L 34.048828 56.998047 C 34.048828 57.580047 33.789891 58.132672 33.337891 58.513672 C 32.863891 58.913672 32.252094 59.072797 31.621094 58.966797 C 30.670094 58.802797 29.953125 57.885031 29.953125 56.832031 L 29.953125 52.59375 C 29.953125 52.19275 29.698125 51.806391 29.328125 51.650391 C 29.204125 51.597391 29.0715 51.572266 28.9375 51.572266 C 28.6695 51.572266 28.402937 51.675281 28.210938 51.863281 L 25.984375 54.054688 C 25.648375 54.384688 25.182031 54.546281 24.707031 54.488281 C 24.228031 54.434281 23.822547 54.173812 23.560547 53.757812 C 23.205547 53.193812 23.347438 52.388703 23.898438 51.845703 L 29.648438 46.183594 C 29.743438 46.089594 29.827906 45.962844 29.878906 45.839844 C 29.929906 45.717844 29.955078 45.585125 29.955078 45.453125 L 29.955078 40.890625 C 29.955078 40.759625 29.922094 40.612234 29.871094 40.490234 C 29.850094 40.439234 29.824922 40.389797 29.794922 40.341797 C 29.729922 40.238797 29.131953 39.315531 28.251953 38.769531 C 27.393953 38.178531 26.070547 38.088172 25.810547 38.076172 C 25.749547 38.076172 25.665516 38.079891 25.603516 38.087891 C 25.478516 38.106891 25.356094 38.148938 25.246094 38.210938 L 21.242188 40.515625 C 21.125188 40.583625 21.012641 40.690828 20.931641 40.798828 C 20.853641 40.901828 20.796672 41.016625 20.763672 41.140625 L 18.714844 48.84375 C 18.591844 49.30375 18.263938 49.714359 17.835938 49.943359 C 17.457937 50.144359 17.040969 50.185547 16.667969 50.060547 C 16.320969 49.942547 16.02875 49.705531 15.84375 49.394531 C 15.64075 49.051531 15.5855 48.651578 15.6875 48.267578 L 16.488281 45.255859 C 16.586281 44.864859 16.430469 44.424594 16.105469 44.183594 C 15.785469 43.947594 15.326422 43.920094 14.982422 44.121094 L 11.121094 46.34375 C 10.590094 46.64875 9.9559531 46.704047 9.3769531 46.498047 C 8.8029531 46.293047 8.3673906 45.864016 8.1503906 45.291016 C 7.8173906 44.410016 8.2625 43.3445 9.1875 42.8125 L 12.904297 40.673828 C 13.263297 40.467828 13.451719 40.015469 13.386719 39.605469 C 13.323719 39.212469 13.033437 38.892969 12.648438 38.792969 L 9.6054688 38.007812 C 9.1434687 37.888813 8.7700313 37.574531 8.5820312 37.144531 C 8.3970312 36.722531 8.4194375 36.257031 8.6484375 35.832031 C 8.9644375 35.245031 9.77625 34.947531 10.53125 35.144531 L 18.398438 37.173828 C 18.526438 37.206828 18.677594 37.211359 18.808594 37.193359 C 18.933594 37.174359 19.056016 37.132312 19.166016 37.070312 L 23.511719 34.566406 C 23.663719 34.464406 23.788141 34.316391 23.869141 34.150391 C 23.921141 34.039391 24.388063 33.040922 24.414062 32.044922 C 24.458062 31.113922 23.969094 30.070094 23.871094 29.871094 C 23.852094 29.832094 23.820875 29.778188 23.796875 29.742188 C 23.711875 29.614188 23.595938 29.506688 23.460938 29.429688 L 19.152344 26.964844 C 19.043344 26.901844 18.904297 26.858844 18.779297 26.839844 C 18.646297 26.819844 18.512766 26.827328 18.384766 26.861328 L 10.384766 28.945312 C 9.9667656 29.055313 9.5359219 28.991578 9.1699219 28.767578 C 8.8159219 28.551578 8.5714219 28.2125 8.4824219 27.8125 C 8.3114219 27.0435 8.8780469 26.234813 9.7480469 26.007812 L 12.630859 25.255859 C 13.022859 25.152859 13.321953 24.780906 13.376953 24.378906 C 13.431953 23.975906 13.236812 23.578 12.882812 23.375 L 9.0136719 21.160156 C 8.4896719 20.860156 8.1312969 20.353578 8.0292969 19.767578 C 7.9272969 19.181578 8.0902344 18.600812 8.4902344 18.132812 C 9.1132344 17.401813 10.290516 17.256969 11.228516 17.792969 L 14.957031 19.925781 C 15.309031 20.123781 15.776703 20.088891 16.095703 19.837891 C 16.409703 19.589891 16.555172 19.154578 16.451172 18.767578 L 15.646484 15.773438 C 15.523484 15.318438 15.623875 14.843703 15.921875 14.470703 C 16.104875 14.243703 16.502906 13.873578 17.253906 13.892578 C 17.889906 13.917578 18.463438 14.417469 18.648438 15.105469 L 20.742188 22.888672 C 20.778187 23.021672 20.8515 23.161531 20.9375 23.269531 C 21.0155 23.366531 21.113656 23.449719 21.222656 23.511719 L 25.21875 25.798828 C 25.32875 25.861828 25.46875 25.904828 25.59375 25.923828 C 25.65675 25.932828 25.71925 25.938594 25.78125 25.933594 C 25.91925 25.926594 27.159125 25.853719 28.203125 25.261719 C 29.423125 24.570719 29.835906 23.601188 29.878906 23.492188 C 29.929906 23.370187 29.955078 23.239422 29.955078 23.107422 L 29.955078 18.544922 C 29.955078 18.275922 29.842391 18.006406 29.650391 17.816406 L 23.798828 12.054688 C 23.469828 11.730688 23.309328 11.285031 23.361328 10.832031 C 23.414328 10.367031 23.678563 9.9689844 24.101562 9.7089844 C 24.678563 9.3539844 25.530984 9.4989687 26.083984 10.042969 L 28.210938 12.136719 C 28.489937 12.410719 28.944547 12.479844 29.310547 12.339844 C 29.698547 12.191844 29.955078 11.819297 29.955078 11.404297 L 29.955078 7 C 29.955078 6.418 30.213969 5.865375 30.667969 5.484375 C 31.023469 5.184375 31.455891 5.0209844 31.916016 5.0019531 z M 27 30 C 26.448 30 26 30.448 26 31 L 26 33 C 26 33.552 26.448 34 27 34 C 27.552 34 28 33.552 28 33 L 28 31 C 28 30.448 27.552 30 27 30 z M 32 30 C 31.448 30 31 30.448 31 31 L 31 33 C 31 33.552 31.448 34 32 34 C 32.552 34 33 33.552 33 33 L 33 31 C 33 30.448 32.552 30 32 30 z M 37 30 C 36.448 30 36 30.448 36 31 L 36 33 C 36 33.552 36.448 34 37 34 C 37.552 34 38 33.552 38 33 L 38 31 C 38 30.448 37.552 30 37 30 z"/></svg>