<svg xmlns="http://www.w3.org/2000/svg"  viewBox="0 0 80 80" width="80px" height="80px"><path d="M 55.808594 4.7578125 L 54.207031 12.900391 L 47.808594 14.257812 L 54.207031 15.615234 L 55.808594 23.757812 L 57.408203 15.615234 L 63.808594 14.257812 L 57.408203 12.900391 L 55.808594 4.7578125 z M 38 8 C 20.338572 8 6 22.338572 6 40 C 6 57.661428 20.338572 72 38 72 C 55.661428 72 70 57.661428 70 40 C 70 35.081413 68.887654 30.415745 66.902344 26.25 A 1.0001 1.0001 0 0 0 66.703125 25.953125 C 66.696381 25.912603 66.694472 25.870522 66.6875 25.830078 A 1.0001 1.0001 0 0 0 65.712891 24.986328 A 1.0001 1.0001 0 0 0 64.716797 26.169922 C 64.903154 27.250982 65 28.363999 65 29.5 C 65 33.154745 63.997456 36.565108 62.251953 39.486328 A 1.0003534 1.0003534 0 0 0 62.150391 40.279297 L 62.150391 40.283203 L 62.152344 40.287109 A 1.0003534 1.0003534 0 0 0 63.109375 41 A 1.0003534 1.0003534 0 0 0 63.96875 40.513672 C 65.519929 37.917665 66.527912 34.960651 66.865234 31.806641 C 67.602675 34.410162 68 37.157765 68 40 C 68 56.580572 54.580572 70 38 70 C 21.419428 70 8 56.580572 8 40 C 8 24.024397 20.494193 11.108106 36.234375 10.177734 C 33.563877 11.461311 31.162406 13.21294 29.244141 15.427734 A 1.000353 1.000353 0 0 0 30.755859 16.738281 C 33.642581 13.405326 37.638946 11.063094 42.169922 10.283203 A 1.0001 1.0001 0 0 0 43.013672 9.2871094 A 1.0001 1.0001 0 0 0 42.128906 8.2636719 C 40.777435 8.0891886 39.397804 8 38 8 z M 27.703125 18.347656 L 26.902344 18.75 L 26.744141 19.630859 L 27.355469 20.285156 L 27.703125 20.347656 L 28.503906 19.947266 L 28.662109 19.064453 L 28.048828 18.410156 L 27.703125 18.347656 z M 26.076172 21.992188 L 25.275391 22.394531 L 25.117188 23.275391 L 25.728516 23.931641 L 26.076172 23.992188 L 26.876953 23.591797 L 27.035156 22.708984 L 26.421875 22.054688 L 26.076172 21.992188 z M 41.808594 25.757812 L 40.839844 30.824219 L 36.808594 31.783203 L 40.839844 32.603516 L 41.808594 37.669922 L 42.775391 32.603516 L 46.808594 31.783203 L 42.775391 30.824219 L 41.808594 25.757812 z M 25.185547 25.882812 L 24.384766 26.285156 L 24.226562 27.167969 L 24.837891 27.822266 L 25.185547 27.882812 L 25.986328 27.482422 L 26.144531 26.599609 L 25.533203 25.945312 L 25.185547 25.882812 z M 25.050781 29.873047 L 24.25 30.275391 L 24.091797 31.15625 L 24.703125 31.810547 L 25.050781 31.873047 L 25.851562 31.472656 L 26.009766 30.589844 L 25.398438 29.935547 L 25.050781 29.873047 z M 25.699219 33.814453 L 24.898438 34.214844 L 24.740234 35.097656 L 25.351562 35.751953 L 25.699219 35.814453 L 26.5 35.412109 L 26.658203 34.529297 L 26.046875 33.875 L 25.699219 33.814453 z M 27.123047 37.542969 L 26.322266 37.945312 L 26.164062 38.826172 L 26.777344 39.480469 L 27.123047 39.542969 L 27.923828 39.142578 L 28.082031 38.259766 L 27.470703 37.605469 L 27.123047 37.542969 z M 29.228516 40.933594 L 28.427734 41.335938 L 28.269531 42.216797 L 28.880859 42.871094 L 29.228516 42.933594 L 30.029297 42.533203 L 30.1875 41.650391 L 29.574219 40.996094 L 29.228516 40.933594 z M 60.736328 42.210938 L 59.933594 42.613281 L 59.777344 43.494141 L 60.388672 44.150391 L 60.736328 44.210938 L 61.537109 43.810547 L 61.695312 42.927734 L 61.082031 42.273438 L 60.736328 42.210938 z M 31.949219 43.853516 L 31.148438 44.255859 L 30.990234 45.136719 L 31.601562 45.792969 L 31.949219 45.853516 L 32.75 45.453125 L 32.908203 44.570312 L 32.294922 43.916016 L 31.949219 43.853516 z M 57.787109 44.904297 L 56.986328 45.306641 L 56.828125 46.1875 L 57.439453 46.841797 L 57.787109 46.904297 L 58.587891 46.503906 L 58.746094 45.621094 L 58.132812 44.966797 L 57.787109 44.904297 z M 35.181641 46.193359 L 34.380859 46.595703 L 34.222656 47.476562 L 34.835938 48.130859 L 35.181641 48.193359 L 35.982422 47.792969 L 36.140625 46.910156 L 35.529297 46.255859 L 35.181641 46.193359 z M 54.373047 46.976562 L 53.572266 47.378906 L 53.414062 48.261719 L 54.027344 48.916016 L 54.373047 48.976562 L 55.173828 48.576172 L 55.332031 47.693359 L 54.720703 47.039062 L 54.373047 46.976562 z M 38.808594 47.861328 L 38.007812 48.261719 L 37.849609 49.144531 L 38.460938 49.798828 L 38.808594 49.861328 L 39.609375 49.458984 L 39.767578 48.576172 L 39.15625 47.921875 L 38.808594 47.861328 z M 50.623047 48.347656 L 49.822266 48.748047 L 49.664062 49.630859 L 50.275391 50.285156 L 50.623047 50.347656 L 51.423828 49.945312 L 51.582031 49.0625 L 50.970703 48.408203 L 50.623047 48.347656 z M 42.6875 48.802734 L 41.886719 49.205078 L 41.728516 50.085938 L 42.339844 50.740234 L 42.6875 50.802734 L 43.488281 50.402344 L 43.646484 49.519531 L 43.033203 48.865234 L 42.6875 48.802734 z M 46.677734 48.960938 L 45.876953 49.361328 L 45.71875 50.244141 L 46.330078 50.898438 L 46.677734 50.960938 L 47.478516 50.558594 L 47.636719 49.677734 L 47.023438 49.023438 L 46.677734 48.960938 z M 68.808594 62.757812 L 67.839844 67.824219 L 63.808594 68.783203 L 67.839844 69.603516 L 68.808594 74.669922 L 69.775391 69.603516 L 73.808594 68.783203 L 69.775391 67.824219 L 68.808594 62.757812 z"/></svg>