<?xml version="1.0" encoding="UTF-8"?>
<svg width="43.5526791px" height="37.3448036px" viewBox="0 0 43.5526791 37.3448036" version="1.1" xmlns="http://www.w3.org/2000/svg" xmlns:xlink="http://www.w3.org/1999/xlink">
    <title>icons8-photo</title>
    <g id="Page-1" stroke="none" stroke-width="1" fill="none" fill-rule="evenodd">
        <g id="MacBook-Pro-14&quot;" transform="translate(-40, -40)" fill="#FFFFFF" fill-rule="nonzero">
            <g id="icons8-photo" transform="translate(40, 40)">
                <path d="M43.2983784,28.463186 C43.2890034,28.453811 43.2890034,28.444436 43.2796284,28.444436 C43.3358784,28.322561 43.3546284,28.172561 43.2983784,28.050686 C42.5577534,26.297561 42.4733784,24.338186 41.9952534,22.510061 C41.4702534,20.475686 40.9733784,18.422561 40.4108784,16.397561 C39.8671284,14.438186 39.2483784,12.497561 38.5358784,10.594436 C38.1983784,9.70381103 37.7858784,8.84131103 37.4202534,7.96006103 C37.1483784,7.28506103 36.5952534,6.76006103 35.8265034,6.90068603 C35.7515034,6.91943603 35.6765034,6.94756103 35.6202534,6.98506103 C35.3390034,6.86318603 34.9827534,6.90068603 34.6733784,6.93818603 C33.9890034,7.02256103 33.3046284,7.19131103 32.6390034,7.36006103 C30.7921284,7.81943603 28.9546284,8.29756103 27.1265034,8.83193603 C27.3983784,7.53818603 28.1015034,5.87881103 27.0515034,4.80068603 C26.3765034,4.10693603 25.2702534,4.40693603 24.4265034,4.20068603 C23.1983784,3.90068603 21.9702534,3.61943603 20.7327534,3.36631103 C19.4858784,3.10381103 18.2390034,2.86943603 17.0015034,2.56006103 C15.7827534,2.25068603 14.5640034,1.91318603 13.3452534,1.59443603 C10.9358784,0.966311032 8.50775341,0.413186032 6.02337841,0.188186032 C5.80775341,-0.0930639685 5.20775341,-0.0836889685 5.06712841,0.385061032 C4.18587841,3.23506103 3.70775341,6.18818603 3.24837841,9.13193603 C2.77962841,12.113186 2.15150341,15.075686 1.57025341,18.038186 C1.27962841,19.528811 0.904628405,20.991311 0.435878405,22.435061 C0.098378405,23.466311 -0.248496595,24.666311 0.248378405,25.706936 C0.735878405,26.719436 1.88900341,27.216311 2.89212841,27.553811 C4.01712841,27.928811 5.17962841,28.210061 6.30462841,28.594436 C7.36400341,28.950686 8.38587841,29.400686 9.38900341,29.888186 C10.4296284,30.394436 11.5265034,30.694436 12.6608784,30.910061 C13.7858784,31.125686 14.9296284,31.228811 16.0733784,31.369436 C16.6452534,31.444436 17.2171284,31.519436 17.7890034,31.622561 C18.1358784,31.688186 18.5202534,31.819436 18.8858784,31.894436 C18.9515034,31.922561 19.0265034,31.941311 19.1108784,31.941311 L19.2796284,31.941311 C19.4108784,32.325686 19.5608784,32.710061 19.7108784,33.094436 C19.9921284,33.769436 20.3296284,34.519436 20.4702534,35.269436 C20.7327534,35.719436 20.9765034,36.188186 21.2108784,36.656936 C22.1671284,37.838186 24.1921284,37.228811 25.4483784,36.806936 C27.8390034,36.000686 30.2108784,35.147561 32.6202534,34.388186 C34.0358784,33.938186 35.4515034,33.469436 36.8483784,32.981936 C38.1983784,32.503811 39.5015034,31.903811 40.8421284,31.435061 C41.8733784,31.069436 44.3483784,29.860061 43.2983784,28.463186 Z M18.8671284,30.769436 C18.6983784,30.731936 18.5202534,30.694436 18.3515034,30.656936 C18.0140034,30.581936 17.6671284,30.525686 17.3202534,30.478811 C16.5796284,30.366311 15.8390034,30.281936 15.0983784,30.197561 C13.6546284,30.028811 12.2108784,29.831936 10.8327534,29.363186 C10.1952534,29.138186 9.59525341,28.810061 8.97650341,28.528811 C8.32025341,28.228811 7.64525341,27.956936 6.96087841,27.713186 C5.82650341,27.310061 4.66400341,27.010061 3.52025341,26.663186 C2.54525341,26.363186 1.20462841,25.903811 1.07337841,24.731936 C1.01712841,24.206936 1.18587841,23.663186 1.32650341,23.166311 C1.52337841,22.453811 1.76712841,21.750686 1.96400341,21.038186 C2.36712841,19.594436 2.63900341,18.113186 2.92962841,16.650686 C3.22962841,15.169436 3.52962841,13.678811 3.80150341,12.197561 C4.47650341,8.55068603 4.88900341,4.85693603 5.90150341,1.28506103 L5.92025341,1.28506103 C6.01400341,1.28506103 6.08900341,1.26631103 6.14525341,1.22881103 C10.6827534,1.67881103 15.0140034,3.24443603 19.4765034,4.15381103 C20.5921284,4.37881103 21.7077534,4.60381103 22.8140034,4.87568603 C23.3390034,4.99756103 23.8640034,5.11943603 24.3796284,5.25068603 C24.8390034,5.36318603 25.3358784,5.30693603 25.8046284,5.35381103 C27.1171284,5.49443603 26.4702534,7.36006103 26.1796284,8.41943603 C26.1515034,8.41943603 26.1233784,8.42881103 26.0952534,8.43818603 C26.0671284,8.56943603 26.0296284,8.69131103 25.9733784,8.81318603 C25.9452534,8.88818603 25.9265034,8.95381103 25.8890034,9.02881103 C25.8796284,9.05693603 25.8608784,9.08506103 25.8421284,9.10381103 C25.8608784,9.14131103 25.8702534,9.17881103 25.8983784,9.20693603 C25.5702534,9.31006103 25.2421284,9.40381103 24.9140034,9.50693603 C25.2796284,8.72881103 25.3171284,7.71631103 25.1390034,6.97568603 C24.9515034,6.18818603 24.2390034,5.90693603 23.5171284,5.72881103 C22.6077534,5.51318603 21.6327534,5.56006103 20.7046284,5.53193603 C19.5515034,5.50381103 18.3702534,5.28818603 17.2265034,5.15693603 C16.0265034,5.01631103 14.8452534,4.81943603 13.6733784,4.51006103 C11.5358784,3.93818603 9.51087841,2.72881103 7.27025341,2.60693603 C6.99837841,2.43818603 6.55775341,2.50381103 6.47337841,2.91631103 C5.90150341,5.84131103 5.28275341,8.76631103 4.75775341,11.700686 C4.50462841,13.135061 4.29837841,14.578811 4.03587841,16.013186 C3.82962841,17.147561 3.15462841,18.431936 3.44525341,19.603811 C3.71712841,20.663186 4.69212841,21.075686 5.65775341,21.328811 C6.11712841,21.450686 6.58587841,21.525686 7.05462841,21.638186 C7.69212841,21.788186 8.31087841,22.013186 8.92025341,22.247561 C10.2421284,22.753811 11.4890034,23.381936 12.8671284,23.747561 C14.2077534,24.103811 15.5765034,24.319436 16.9077534,24.703811 C17.1046284,24.760061 17.2546284,24.703811 17.3577534,24.600686 C17.7421284,26.438186 18.2015034,28.266311 18.6983784,30.066311 C18.7640034,30.310061 18.8390034,30.563186 18.9140034,30.806936 C18.9140034,30.788186 18.8858784,30.778811 18.8671284,30.769436 Z M17.2171284,23.710061 C17.1890034,23.700686 17.1702534,23.691311 17.1421284,23.681936 C15.9233784,23.325686 14.6671284,23.100686 13.4390034,22.810061 C12.0890034,22.481936 10.8702534,21.891311 9.58587841,21.375686 C8.58275341,20.972561 7.56087841,20.663186 6.50150341,20.438186 C6.07025341,20.344436 5.62962841,20.250686 5.21712841,20.072561 C4.69212841,19.847561 4.44837841,19.519436 4.44837841,18.938186 C4.43900341,18.403811 4.68275341,17.860061 4.80462841,17.344436 C4.94525341,16.725686 5.10462841,16.125686 5.20775341,15.497561 C5.44212841,14.110061 5.65775341,12.713186 5.91087841,11.325686 C5.96712841,10.988186 6.03275341,10.660061 6.09837841,10.322561 C6.21087841,10.566311 6.33275341,10.800686 6.43587841,11.025686 C6.79212841,11.831936 7.14837841,12.628811 7.46712841,13.444436 C7.78587841,14.269436 8.07650341,15.113186 8.25462841,15.975686 C8.37650341,16.575686 8.47962841,17.269436 8.92025341,17.738186 C9.41712841,18.253811 10.0827534,18.122561 10.6827534,17.897561 C11.6202534,17.541311 12.4546284,16.960061 13.3546284,16.519436 C13.6546284,16.369436 14.1140034,16.153811 14.3671284,16.144436 C14.5546284,16.135061 14.7983784,16.247561 14.9765034,16.322561 C15.2296284,16.425686 15.4827534,16.547561 15.7077534,16.706936 C15.7827534,16.763186 15.8577534,16.819436 15.9233784,16.875686 C15.9140034,16.913186 15.9046284,16.950686 15.8952534,16.988186 C15.9702534,17.035061 16.0358784,17.091311 16.1015034,17.156936 C16.3733784,17.447561 16.4483784,17.803811 16.4202534,18.160061 C16.6265034,20.025686 16.8608784,21.872561 17.2171284,23.710061 Z M15.9608784,14.606936 C16.0640034,15.000686 16.1202534,15.413186 16.1577534,15.825686 C15.7265034,15.544436 15.2577534,15.338186 15.0140034,15.263186 C14.3108784,15.038186 13.7858784,15.188186 13.1296284,15.488186 C12.1733784,15.928811 11.3015034,16.538186 10.3265034,16.931936 C10.1390034,17.006936 9.82962841,17.185061 9.64212841,17.025686 C9.45462841,16.866311 9.39837841,16.500686 9.35150341,16.285061 C9.13587841,15.431936 8.95775341,14.597561 8.67650341,13.763186 C8.35775341,12.844436 7.96400341,11.953811 7.57025341,11.063186 C7.42962841,10.735061 7.27962841,10.406936 7.12962841,10.078811 C7.06400341,9.93818603 7.00775341,9.78818603 6.94212841,9.64756103 C6.92337841,9.60068603 6.83900341,9.31006103 6.86712841,9.51631103 C6.81087841,9.21631103 6.56712841,9.07568603 6.32337841,9.06631103 C6.67962841,7.24756103 7.05462841,5.42881103 7.41087841,3.61006103 C8.32025341,3.67568603 9.20150341,3.97568603 10.0452534,4.29443603 C10.9733784,4.65068603 11.8921284,5.01631103 12.8483784,5.29756103 C14.8640034,5.90693603 16.9171284,6.11318603 18.9983784,6.33818603 C19.8702534,6.43193603 20.7046284,6.51631103 21.5858784,6.53506103 C22.3640034,6.55381103 23.1983784,6.56318603 23.9202534,6.89131103 C24.3327534,7.07881103 24.2577534,7.78193603 24.2108784,8.14756103 C24.1640034,8.53193603 24.0327534,9.33818603 23.6202534,9.52568603 C23.4233784,9.61006103 23.3296284,9.77881103 23.3108784,9.94756103 C23.2733784,9.95693603 23.2358784,9.96631103 23.1983784,9.97568603 C21.9046284,10.350686 20.5733784,10.594436 19.2608784,10.866311 C18.4358784,11.035061 17.6202534,11.213186 16.8046284,11.438186 C16.5327534,11.513186 16.2421284,11.606936 16.0358784,11.813186 C15.9327534,11.925686 15.8952534,12.047561 15.8952534,12.160061 C15.8671284,12.197561 15.8390034,12.244436 15.8202534,12.300686 C15.5483784,13.097561 15.7640034,13.856936 15.9608784,14.606936 Z M39.5108784,30.863186 C37.0921284,31.838186 34.6171284,32.663186 32.1327534,33.450686 C29.9671284,34.144436 27.8108784,34.856936 25.6733784,35.625686 C24.9702534,35.878811 24.2483784,36.131936 23.5077534,36.253811 C23.2358784,36.300686 22.8796284,36.338186 22.5702534,36.281936 C22.5233784,36.300686 22.4765034,36.3101738 22.4202534,36.300686 C22.0265034,36.178811 21.7921284,35.888186 21.6421284,35.522561 C21.6233784,35.513186 21.6046284,35.513186 21.5765034,35.513186 C21.5765034,35.494436 21.5671284,35.475686 21.5671284,35.456936 C21.5577534,35.372561 21.5483784,35.288186 21.5296284,35.203811 C21.4827534,35.044436 21.4546284,34.885061 21.4265034,34.716311 C21.2952534,34.191311 21.0890034,33.685061 20.9015034,33.206936 C20.5171284,32.222561 20.1421284,31.256936 19.8515034,30.235061 C19.2608784,28.210061 18.7546284,26.138186 18.3327534,24.066311 C17.9108784,22.013186 17.7233784,19.950686 17.4046284,17.888186 C17.2546284,16.922561 17.1702534,15.938186 17.0858784,14.963186 C17.0296284,14.297561 16.5140034,13.463186 16.7483784,12.797561 C16.7577534,12.769436 16.7671284,12.741311 16.7671284,12.713186 C16.8233784,12.656936 16.8702534,12.591311 16.9077534,12.516311 C17.0483784,12.469436 17.1890034,12.431936 17.3296284,12.394436 C17.5546284,12.338186 17.7890034,12.281936 18.0140034,12.225686 C19.0265034,11.944436 20.0765034,11.775686 21.1077534,11.560061 C23.2546284,11.110061 25.3265034,10.444436 27.4171284,9.81631103 C29.0858784,9.31943603 30.7827534,8.91631103 32.4702534,8.46631103 C33.0233784,8.31631103 33.5765034,8.17568603 34.1390034,8.07256103 C34.4015034,8.02568603 34.6640034,7.97881103 34.9265034,7.95068603 C35.0202534,7.94131103 35.1046284,7.93193603 35.1983784,7.93193603 C35.2077534,7.93193603 35.2077534,7.93193603 35.2171284,7.93193603 C35.1608784,7.89443603 35.0765034,7.82881103 35.0202534,7.67881103 C35.0671284,7.79131103 35.1421284,7.87568603 35.2265034,7.92256103 C35.2265034,7.92256103 35.2171284,7.92256103 35.2171284,7.92256103 C35.2171284,7.92256103 35.2265034,7.92256103 35.2265034,7.92256103 C35.2265034,7.92256103 35.2265034,7.92256103 35.2265034,7.92256103 L35.2358784,7.92256103 C35.3108784,7.93193603 35.3108784,7.95068603 35.2640034,7.94131103 C35.4233784,8.01631103 35.6108784,7.99756103 35.7608784,7.92256103 C35.8077534,7.92256103 35.8546284,7.92256103 35.9108784,7.91318603 C36.2202534,7.85693603 36.3233784,8.00693603 36.4546284,8.27881103 C36.6140034,8.62568603 36.7452534,8.97256103 36.9046284,9.31943603 C37.3171284,10.210061 37.6546284,11.128811 37.9733784,12.047561 C38.6015034,13.866311 39.1640034,15.703811 39.6702534,17.560061 C40.1765034,19.425686 40.6265034,21.291311 41.1140034,23.166311 C41.4796284,24.563186 41.5921284,26.025686 41.9858784,27.413186 C42.1077534,27.656936 42.1827534,27.900686 42.2108784,28.163186 C42.3140034,28.425686 42.3983784,28.697561 42.4077534,28.988186 C42.4265034,29.016311 42.4452534,29.044436 42.4733784,29.072561 C42.8765034,29.513186 39.7921284,30.750686 39.5108784,30.863186 Z" id="Shape"></path>
                <path d="M39.1921284,24.319436 C39.1827534,23.691311 39.1640034,23.063186 39.1827534,22.425686 C38.9577534,21.478811 38.7983784,20.522561 38.6202534,19.575686 C38.3765034,18.310061 38.1233784,17.035061 37.8233784,15.778811 C37.5140034,14.494436 37.1483784,13.228811 36.8296284,11.953811 C36.6890034,11.400686 36.5390034,10.847561 36.4077534,10.285061 C36.2952534,9.77881103 36.0890034,9.31006103 35.6671284,8.98193603 C35.5358784,8.87881103 35.3858784,8.85068603 35.2546284,8.87881103 C35.1327534,8.77568603 34.9733784,8.72881103 34.7858784,8.78506103 C32.0858784,9.58193603 29.5546284,10.828811 26.7702534,11.353811 C25.4015034,11.606936 24.0046284,11.747561 22.6452534,12.038186 C22.5140034,12.066311 22.3827534,12.094436 22.2515034,12.131936 C21.6046284,12.347561 20.9671284,12.619436 20.3108784,12.806936 C20.0015034,12.891311 19.6827534,12.947561 19.3733784,13.003811 C19.1296284,13.097561 18.8296284,13.125686 18.5671284,13.200686 C18.5202534,13.219436 18.4733784,13.238186 18.4265034,13.247561 C18.3983784,13.256936 18.3608784,13.275686 18.3327534,13.294436 C18.2390034,13.444436 18.1452534,13.603811 18.0890034,13.781936 C18.0421284,13.941311 18.0046284,14.110061 17.9858784,14.269436 C17.9858784,14.503811 17.9952534,14.738186 18.0140034,14.981936 C18.1921284,15.497561 18.3421284,16.031936 18.5015034,16.556936 C18.9327534,18.056936 19.2046284,19.631936 19.5140034,21.160061 C20.1046284,24.047561 20.3202534,27.047561 21.4640034,29.794436 C21.6046284,30.131936 21.9702534,30.178811 22.2233784,30.047561 C22.2421284,30.056936 22.2608784,30.075686 22.2796284,30.085061 C23.3952534,30.703811 24.9515034,29.944436 26.0671284,29.663186 C27.1077534,29.400686 28.1390034,29.072561 29.1890034,28.819436 C30.2108784,28.566311 31.2421284,28.378811 32.2546284,28.106936 C34.0827534,27.610061 35.9483784,26.953811 37.6358784,26.072561 C38.2921284,25.725686 38.9952534,25.144436 39.2202534,24.488186 C39.1921284,24.431936 39.1827534,24.375686 39.1921284,24.319436 Z M21.5015034,26.044436 C21.4733784,26.063186 21.4452534,26.091311 21.4171284,26.119436 C21.0796284,24.516311 20.8640034,22.875686 20.5452534,21.263186 C20.2546284,19.791311 19.9640034,18.310061 19.6077534,16.856936 C19.4296284,16.135061 19.2046284,15.431936 18.9890034,14.719436 C18.9327534,14.541311 18.8671284,14.372561 18.8015034,14.194436 C18.7827534,14.128811 18.7546284,14.063186 18.7358784,13.997561 C20.0765034,13.885061 21.3421284,13.416311 22.6358784,13.088186 C24.0608784,12.722561 25.5608784,12.610061 27.0140034,12.347561 C29.7983784,11.831936 32.3296284,10.594436 35.0202534,9.78818603 C35.3390034,10.060061 35.3952534,10.472561 35.4890034,10.866311 C35.6202534,11.456936 35.7890034,12.047561 35.9390034,12.638186 C36.2390034,13.856936 36.5858784,15.066311 36.8858784,16.285061 C37.0265034,16.866311 37.1483784,17.447561 37.2608784,18.038186 C37.2608784,18.038186 37.2515034,18.038186 37.2515034,18.038186 L37.0640034,18.038186 C36.8577534,18.038186 36.7265034,18.131936 36.6608784,18.263186 C35.0296284,19.050686 33.7358784,20.513186 32.8546284,22.088186 C32.1140034,21.741311 31.3546284,21.422561 30.5765034,21.160061 C29.7046284,20.860061 28.8515034,20.569436 27.9327534,20.813186 C27.2108784,21.000686 26.6202534,21.591311 26.0671284,22.060061 C25.7858784,22.294436 25.5140034,22.528811 25.2421284,22.763186 C24.3515034,23.522561 23.4702534,24.291311 22.5983784,25.069436 C22.2140034,25.406936 21.8577534,25.725686 21.5015034,26.044436 Z M38.3296284,23.916311 C38.3202534,23.963186 38.3015034,24.000686 38.2733784,24.028811 C38.3952534,24.703811 36.4358784,25.491311 36.0890034,25.641311 C34.5233784,26.335061 32.8827534,26.888186 31.2140034,27.310061 C29.4608784,27.750686 27.6983784,28.125686 25.9546284,28.622561 C25.4108784,28.781936 24.8577534,28.931936 24.3140034,29.081936 C23.8546284,29.203811 23.1608784,29.419436 22.7108784,29.166311 C22.5515034,29.081936 22.4015034,29.081936 22.2796284,29.147561 C22.0452534,28.547561 21.8577534,27.928811 21.6890034,27.310061 C21.7827534,27.263186 21.8577534,27.178811 21.9046284,27.047561 C21.8858784,27.094436 21.8765034,27.122561 21.8765034,27.131936 C21.8858784,27.122561 21.9046284,27.075686 21.9515034,27.038186 C22.0546284,26.935061 22.1671284,26.831936 22.2796284,26.738186 C22.6077534,26.438186 22.9452534,26.138186 23.2827534,25.838186 C24.0796284,25.135061 24.8765034,24.441311 25.6827534,23.747561 C26.3952534,23.138186 27.1077534,22.350686 27.9421284,21.938186 C28.6921284,21.563186 29.5265034,21.919436 30.2671284,22.172561 C31.1483784,22.472561 32.0015034,22.847561 32.8358784,23.269436 C33.0890034,23.391311 33.3983784,23.288186 33.5296284,23.035061 C34.3640034,21.403811 35.6952534,19.753811 37.4483784,19.078811 C37.6921284,20.400686 37.9265034,21.722561 38.2546284,23.016311 C38.2546284,23.016311 38.2546284,23.016311 38.2546284,23.016311 C38.2640034,23.035061 38.2733784,23.053811 38.2827534,23.072561 C38.3765034,23.344436 38.3765034,23.625686 38.3296284,23.916311 Z" id="Shape"></path>
                <path d="M32.6952534,13.453811 C32.2921284,13.322561 31.8515034,13.238186 31.4390034,13.388186 C31.0640034,13.528811 30.8483784,13.903811 30.6140034,14.194436 C30.3515034,14.522561 30.5671284,14.916311 30.8577534,15.028811 C30.9796284,16.510061 33.5108784,16.716311 33.9983784,15.263186 C34.3358784,14.269436 33.5202534,13.725686 32.6952534,13.453811 Z M31.8890034,14.916311 C31.9171284,14.719436 31.8421284,14.560061 31.7202534,14.456936 C31.7390034,14.438186 31.7577534,14.410061 31.7671284,14.391311 C31.8702534,14.269436 32.0765034,14.353811 32.2171284,14.381936 C32.4046284,14.419436 33.0702534,14.588186 33.0515034,14.831936 C33.0046284,15.385061 31.8327534,15.328811 31.8890034,14.916311 Z M13.2421284,8.29756103 C12.8671284,7.61318603 12.0327534,7.36943603 11.3108784,7.52881103 C10.4952534,7.71631103 10.0358784,8.41943603 10.0546284,9.22568603 C10.0640034,9.43193603 10.1671284,9.57256103 10.3077534,9.63818603 C10.3452534,9.67568603 10.3827534,9.71318603 10.4296284,9.74131103 C11.0202534,10.116311 11.8733784,10.313186 12.5577534,10.153811 C13.4296284,9.95693603 13.6358784,9.01006103 13.2421284,8.29756103 Z M12.3983784,9.13193603 C12.2858784,9.19756103 12.1171284,9.18818603 11.9952534,9.17881103 C11.6952534,9.15068603 11.3952534,9.07568603 11.1140034,8.94443603 C11.2827534,8.44756103 12.1171284,8.28818603 12.3608784,8.83193603 C12.3983784,8.90693603 12.3983784,8.96318603 12.4077534,9.04756103 C12.4171284,9.08506103 12.4077534,9.11318603 12.3983784,9.13193603 Z" id="Shape"></path>
            </g>
        </g>
    </g>
</svg>