<?xml version="1.0" encoding="UTF-8"?>
<svg width="2712px" height="1008px" viewBox="0 0 2708 1005" version="1.1" xmlns="http://www.w3.org/2000/svg" xmlns:xlink="http://www.w3.org/1999/xlink">
    <title>Rectangle</title>
    <g id="Page-2" stroke="none" stroke-width="1" fill="none" fill-rule="evenodd">
        <path d="M0,232 C41.2627982,177.815963 82.4715248,137.332049 123.62618,110.548258 C185.358162,70.3725717 244.147531,73.8243944 223.774526,101.714896 C203.401522,129.605397 221.090157,236.766621 399.633452,255.107668 C578.176748,273.448715 678.336582,145.199198 814.650899,145.199198 C992.568672,145.199198 1063.46585,252.170469 1198.363,232 C1316.77974,214.293761 1331.67943,138.943772 1396.75783,85.7705548 C1474.79599,22.0083775 1548.15689,64.6290289 1529.47928,85.7705548 C1510.80167,106.912081 1510.80167,202.977841 1577.84383,255.107668 C1653.41333,313.868075 1790.30965,298.50343 1879.58833,243.200528 C1968.86702,187.897625 1987.97529,101.714896 1936.829,42.2641495 C1921.05281,23.926435 2039.18472,-62.5402919 2143.39782,85.7705548 C2196.4504,161.27232 2279.05149,331.082429 2513.93145,316.030382 C2601.04907,310.447536 2666.07192,282.437409 2709,232 L2709.31427,1004 L0,1004 L0,232 Z" id="Rectangle" fill="#CCD5D3"></path>
    </g>
</svg>