<svg xmlns="http://www.w3.org/2000/svg"  viewBox="0 0 64 64" width="48px" height="48px"><path d="M 23.5 12 C 18.07 12 13.580781 16.149219 13.050781 21.449219 C 8.9307812 22.719219 6 26.55 6 31 C 6 35.577534 9.1022795 39.44955 13.318359 40.625 C 13.111105 41.381878 13 42.17825 13 43 C 13 47.962 17.037 52 22 52 L 46.5 52 C 51.738 52 57 47.738 57 42.5 C 57 38.552 54.558141 35.075969 50.994141 33.667969 C 50.859458 29.143091 47.976049 25.304788 43.962891 23.748047 C 43.581239 19.409774 39.936399 16 35.5 16 C 34.37 16 33.260703 16.230156 32.220703 16.660156 C 30.310703 13.770156 27.08 12 23.5 12 z M 23.5 16 C 26.2 16 28.580547 17.630156 29.560547 20.160156 C 29.790547 20.760156 30.290156 21.209141 30.910156 21.369141 C 31.520156 21.539141 32.179688 21.4 32.679688 21 C 33.489688 20.34 34.46 20 35.5 20 C 37.457555 20 39.111374 21.265698 39.728516 23.015625 C 36.382115 23.098285 33.287657 24.681036 31.279297 27.294922 C 30.538297 27.098922 29.776 27 29 27 C 24.659 27 21.025594 30.088594 20.183594 34.183594 C 18.280938 34.574811 16.601168 35.573611 15.341797 36.960938 C 12.340812 36.632288 10 34.087471 10 31 C 10 27.97 12.269531 25.410781 15.269531 25.050781 C 16.319531 24.920781 17.089531 23.999453 17.019531 22.939453 C 16.764531 18.613453 20.304 16 23.5 16 z M 40 27 C 43.859 27 47 30.14 47 34 C 47 34.263 46.9795 34.543766 46.9375 34.884766 C 46.8025 35.932766 47.505969 36.904516 48.542969 37.103516 C 51.125969 37.598516 53 39.868 53 42.5 C 53 45.533 49.532 48 46.5 48 L 22 48 C 19.243 48 17 45.757 17 43 C 17 40.243 19.243 38 22 38 C 23.104 38 24 37.104 24 36 C 24 33.243 26.243 31 29 31 C 29.762 31 30.501266 31.173625 31.197266 31.515625 C 31.679266 31.751625 32.213453 31.778953 32.689453 31.626953 C 33.165453 31.474953 33.584844 31.145828 33.839844 30.673828 C 35.065844 28.408828 37.427 27 40 27 z"/></svg>