<svg xmlns="http://www.w3.org/2000/svg"  viewBox="0 0 64 64" width="64px" height="64px"><path d="M 31 2 C 15.011719 2 2 15.007813 2 31 C 2 46.992188 15.011719 60 31 60 C 46.988281 60 60 46.992188 60 31 C 60 15.007813 46.988281 2 31 2 Z M 31 4 C 45.886719 4 58 16.113281 58 31 C 58 45.886719 45.886719 58 31 58 C 21.980469 58 13.984375 53.550781 9.078125 46.734375 C 9.347656 46.773438 9.617188 46.796875 9.882813 46.796875 C 11.917969 46.796875 13.894531 45.714844 14.9375 43.808594 C 16.460938 41.027344 15.433594 37.523438 12.652344 36.003906 C 10.644531 34.90625 8.179688 35.101563 6.371094 36.5 C 5.933594 36.839844 5.855469 37.46875 6.195313 37.90625 C 6.53125 38.34375 7.160156 38.421875 7.59375 38.082031 C 8.777344 37.167969 10.386719 37.042969 11.691406 37.761719 C 13.507813 38.75 14.175781 41.035156 13.183594 42.847656 C 12.191406 44.660156 9.90625 45.332031 8.09375 44.339844 C 7.871094 44.21875 7.664063 44.074219 7.472656 43.910156 C 7.394531 43.847656 7.308594 43.8125 7.21875 43.773438 C 5.167969 39.96875 4 35.617188 4 31 C 4 16.113281 16.113281 4 31 4 Z M 31.519531 8.003906 C 28.386719 7.933594 25.261719 8.5 22.34375 9.6875 C 21.832031 9.894531 21.585938 10.476563 21.792969 10.988281 C 21.949219 11.378906 22.324219 11.613281 22.71875 11.613281 C 22.84375 11.613281 22.972656 11.589844 23.09375 11.539063 C 26.648438 10.097656 30.53125 9.65625 34.339844 10.265625 C 34.882813 10.355469 35.398438 9.980469 35.484375 9.4375 C 35.574219 8.890625 35.199219 8.375 34.65625 8.289063 C 33.613281 8.121094 32.566406 8.027344 31.519531 8.003906 Z M 38.65625 9.386719 C 38.269531 9.402344 37.910156 9.648438 37.765625 10.035156 C 37.570313 10.554688 37.832031 11.128906 38.351563 11.324219 C 39.066406 11.589844 39.769531 11.898438 40.453125 12.238281 C 40.597656 12.3125 40.75 12.347656 40.902344 12.347656 C 41.265625 12.347656 41.617188 12.148438 41.796875 11.796875 C 42.042969 11.304688 41.84375 10.703125 41.351563 10.453125 C 40.609375 10.078125 39.832031 9.742188 39.050781 9.449219 C 38.921875 9.402344 38.789063 9.382813 38.65625 9.386719 Z M 20.605469 18.816406 C 20.476563 18.796875 20.34375 18.800781 20.207031 18.835938 C 19.878906 18.921875 19.550781 19.039063 19.234375 19.191406 C 16.679688 20.425781 15.605469 23.511719 16.84375 26.066406 C 17.730469 27.90625 19.570313 28.976563 21.484375 28.976563 C 22.238281 28.976563 23 28.8125 23.71875 28.464844 C 25.5625 27.574219 26.703125 25.675781 26.625 23.628906 C 26.601563 23.078125 26.101563 22.628906 25.589844 22.667969 C 25.035156 22.6875 24.605469 23.152344 24.625 23.703125 C 24.675781 24.957031 23.976563 26.117188 22.847656 26.664063 C 21.285156 27.421875 19.398438 26.761719 18.640625 25.199219 C 17.882813 23.636719 18.542969 21.75 20.109375 20.992188 C 20.300781 20.898438 20.5 20.828125 20.703125 20.777344 C 21.238281 20.640625 21.5625 20.09375 21.425781 19.558594 C 21.324219 19.15625 20.992188 18.875 20.605469 18.816406 Z M 23.710938 19.257813 C 23.324219 19.207031 22.929688 19.386719 22.71875 19.746094 C 22.441406 20.222656 22.601563 20.835938 23.078125 21.113281 C 23.292969 21.242188 23.496094 21.394531 23.675781 21.570313 C 23.871094 21.761719 24.121094 21.855469 24.375 21.855469 C 24.636719 21.855469 24.894531 21.753906 25.089844 21.554688 C 25.476563 21.160156 25.46875 20.527344 25.074219 20.140625 C 24.777344 19.851563 24.445313 19.597656 24.089844 19.390625 C 23.96875 19.320313 23.839844 19.273438 23.710938 19.257813 Z M 40 21 C 38.894531 21 38 21.894531 38 23 C 38 24.105469 38.894531 25 40 25 C 41.105469 25 42 24.105469 42 23 C 42 21.894531 41.105469 21 40 21 Z M 48 32 C 46.894531 32 46 32.894531 46 34 C 46 35.105469 46.894531 36 48 36 C 49.105469 36 50 35.105469 50 34 C 50 32.894531 49.105469 32 48 32 Z M 36 33 C 33.792969 33 32 34.792969 32 37 C 32 39.207031 33.792969 41 36 41 C 38.207031 41 40 39.207031 40 37 C 40 34.792969 38.207031 33 36 33 Z M 36 35 C 37.101563 35 38 35.898438 38 37 C 38 38.101563 37.101563 39 36 39 C 34.898438 39 34 38.101563 34 37 C 34 35.898438 34.898438 35 36 35 Z M 21.375 46.394531 C 20.984375 46.347656 20.589844 46.527344 20.386719 46.886719 L 19.386719 48.621094 C 19.109375 49.097656 19.273438 49.707031 19.75 49.984375 C 19.90625 50.074219 20.078125 50.121094 20.25 50.121094 C 20.59375 50.121094 20.929688 49.941406 21.113281 49.621094 L 22.113281 47.886719 C 22.390625 47.410156 22.230469 46.796875 21.75 46.519531 C 21.628906 46.453125 21.503906 46.410156 21.375 46.394531 Z M 40.625 46.394531 C 40.496094 46.410156 40.367188 46.453125 40.25 46.519531 C 39.769531 46.796875 39.609375 47.410156 39.886719 47.890625 L 40.886719 49.621094 C 41.070313 49.941406 41.40625 50.121094 41.75 50.121094 C 41.921875 50.121094 42.09375 50.078125 42.25 49.984375 C 42.730469 49.710938 42.890625 49.097656 42.613281 48.621094 L 41.613281 46.890625 C 41.40625 46.53125 41.011719 46.347656 40.625 46.394531 Z M 25.816406 48.34375 C 25.429688 48.398438 25.09375 48.675781 24.984375 49.078125 L 24.46875 51.011719 C 24.324219 51.542969 24.644531 52.089844 25.175781 52.234375 C 25.261719 52.257813 25.347656 52.269531 25.4375 52.269531 C 25.875 52.269531 26.28125 51.972656 26.402344 51.527344 L 26.921875 49.59375 C 27.0625 49.0625 26.746094 48.511719 26.214844 48.371094 C 26.078125 48.332031 25.945313 48.324219 25.816406 48.34375 Z M 36.1875 48.34375 C 36.058594 48.324219 35.921875 48.332031 35.785156 48.371094 C 35.253906 48.511719 34.9375 49.0625 35.078125 49.59375 L 35.597656 51.527344 C 35.71875 51.972656 36.121094 52.269531 36.5625 52.269531 C 36.652344 52.269531 36.738281 52.257813 36.824219 52.234375 C 37.355469 52.089844 37.675781 51.542969 37.53125 51.011719 L 37.015625 49.078125 C 36.90625 48.675781 36.570313 48.398438 36.1875 48.34375 Z M 31 49 C 30.445313 49 30 49.449219 30 50 L 30 52 C 30 52.550781 30.445313 53 31 53 C 31.554688 53 32 52.550781 32 52 L 32 50 C 32 49.449219 31.554688 49 31 49 Z"/></svg>