<svg xmlns="http://www.w3.org/2000/svg"  viewBox="0 0 48 48" width="48px" height="48px"><path d="M 22.421875 4 C 16.869452 4 12.189573 7.5306257 10.332031 12.443359 C 6.1841275 13.197303 3 16.749976 3 21.105469 C 3 25.983106 6.9609301 29.949265 11.830078 29.986328 C 11.852918 29.986502 11.871651 30 11.894531 30 C 11.937941 30 11.907438 29.998847 11.929688 29.998047 A 1.0001 1.0001 0 0 0 12 30 L 37 30 C 41.406438 30 45 26.406438 45 22 C 45 17.593562 41.406438 14 37 14 C 36.291488 14 35.652848 14.224365 34.998047 14.398438 C 33.767504 8.4981926 28.678235 4 22.421875 4 z M 22.421875 6 C 28.051712 6 32.664344 10.212884 33.330078 15.654297 A 1.0001 1.0001 0 0 0 34.707031 16.457031 C 35.413611 16.163766 36.185176 16 37 16 C 40.325562 16 43 18.674438 43 22 C 43 25.325562 40.325562 28 37 28 L 12.085938 28 A 1.0001 1.0001 0 0 0 12 27.994141 C 11.869762 27.994141 11.834293 28 11.894531 28 C 8.0750513 28 5 24.924949 5 21.105469 C 5 17.544446 7.6813297 14.635086 11.132812 14.255859 A 1.0001 1.0001 0 0 0 11.972656 13.572266 C 13.412909 9.1791289 17.535129 6 22.421875 6 z M 14 34 C 14 34 12.950321 33.9979 11.71875 34.173828 C 10.487179 34.349767 9.037444 34.597322 8.0253906 35.609375 C 6.5522116 37.082554 6.5522116 39.50143 8.0253906 40.974609 C 9.4985696 42.447788 11.917446 42.447788 13.390625 40.974609 C 14.402678 39.962556 14.650233 38.512821 14.826172 37.28125 C 15.002111 36.049679 15 35 15 35 A 1.0001 1.0001 0 0 0 14 34 z M 38 34 C 38 34 36.950321 33.9979 35.71875 34.173828 C 34.487179 34.349767 33.037444 34.597322 32.025391 35.609375 C 30.552212 37.082554 30.552212 39.50143 32.025391 40.974609 C 33.49857 42.447788 35.917446 42.447788 37.390625 40.974609 C 38.402678 39.962556 38.650233 38.512821 38.826172 37.28125 C 39.002111 36.049679 39 35 39 35 A 1.0001 1.0001 0 0 0 38 34 z M 12.916016 36.083984 C 12.895086 36.438657 12.915835 36.507102 12.845703 36.998047 C 12.692392 38.071226 12.281509 39.2556 11.976562 39.560547 C 11.267743 40.269368 10.148274 40.269368 9.4394531 39.560547 C 8.7306321 38.851726 8.7306321 37.732258 9.4394531 37.023438 C 9.7443997 36.718491 10.928774 36.307608 12.001953 36.154297 C 12.492898 36.084157 12.561343 36.104914 12.916016 36.083984 z M 36.916016 36.083984 C 36.895086 36.438657 36.915835 36.507102 36.845703 36.998047 C 36.692392 38.071226 36.281509 39.2556 35.976562 39.560547 C 35.267742 40.269368 34.148274 40.269368 33.439453 39.560547 C 32.730632 38.851726 32.730632 37.732258 33.439453 37.023438 C 33.7444 36.718491 34.928774 36.307608 36.001953 36.154297 C 36.492898 36.084157 36.561343 36.104914 36.916016 36.083984 z M 26 37 C 26 37 24.950321 36.9979 23.71875 37.173828 C 22.487179 37.349767 21.037444 37.597322 20.025391 38.609375 C 18.552212 40.082554 18.552212 42.50143 20.025391 43.974609 C 21.49857 45.447788 23.917446 45.447788 25.390625 43.974609 C 26.402678 42.962556 26.650233 41.512821 26.826172 40.28125 C 27.002111 39.049679 27 38 27 38 A 1.0001 1.0001 0 0 0 26 37 z M 24.916016 39.083984 C 24.895086 39.438657 24.915835 39.507102 24.845703 39.998047 C 24.692392 41.071226 24.281509 42.2556 23.976562 42.560547 C 23.267743 43.269368 22.148274 43.269368 21.439453 42.560547 C 20.730632 41.851726 20.730632 40.732258 21.439453 40.023438 C 21.7444 39.718491 22.928774 39.307608 24.001953 39.154297 C 24.492898 39.084157 24.561343 39.104914 24.916016 39.083984 z"/></svg>